<svg width="12" height="13" viewBox="0 0 12 13" fill="none" xmlns="http://www.w3.org/2000/svg">
<path d="M10.8 5.97409V2.36364C10.8 2.0502 10.6736 1.7496 10.4485 1.52796C10.2235 1.30633 9.91826 1.18182 9.6 1.18182H7.092C6.84 0.496364 6.18 0 5.4 0C4.62 0 3.96 0.496364 3.708 1.18182H1.2C0.54 1.18182 0 1.71364 0 2.36364V10.6364C0 10.9498 0.126428 11.2504 0.351472 11.472C0.576515 11.6937 0.88174 11.8182 1.2 11.8182H4.866C5.622 12.5509 6.654 13 7.8 13C10.122 13 12 11.1505 12 8.86364C12 7.735 11.544 6.71864 10.8 5.97409ZM5.4 1.18182C5.73 1.18182 6 1.44773 6 1.77273C6 2.09773 5.73 2.36364 5.4 2.36364C5.07 2.36364 4.8 2.09773 4.8 1.77273C4.8 1.44773 5.07 1.18182 5.4 1.18182ZM1.8 3.54545H9V4.72727H1.8V3.54545ZM3.648 9.45455H1.8V8.27273H3.648C3.618 8.46773 3.6 8.66273 3.6 8.86364C3.6 9.06454 3.618 9.25955 3.648 9.45455ZM1.8 7.09091V5.90909H4.866C4.5 6.24591 4.224 6.64773 4.008 7.09091H1.8ZM7.8 11.8182C6.144 11.8182 4.8 10.4945 4.8 8.86364C4.8 7.23273 6.144 5.90909 7.8 5.90909C9.456 5.90909 10.8 7.23273 10.8 8.86364C10.8 10.4945 9.456 11.8182 7.8 11.8182ZM8.1 9.01136L9.816 10.01L9.366 10.7309L7.2 9.45455V6.5H8.1V9.01136Z" fill="#080C2F"/>
</svg>
