<svg width="16" height="16" viewBox="0 0 16 16" fill="none" xmlns="http://www.w3.org/2000/svg">
<path d="M11.42 13.8L14.2 11.04L13.36 10.2L11.42 12.1L10.64 11.32L9.8 12.18L11.42 13.8ZM2.4 4.8H12V3.2H2.4V4.8ZM12 16C10.8933 16 9.95013 15.6101 9.1704 14.8304C8.39013 14.0501 8 13.1067 8 12C8 10.8933 8.39013 9.94987 9.1704 9.1696C9.95013 8.38987 10.8933 8 12 8C13.1067 8 14.0501 8.38987 14.8304 9.1696C15.6101 9.94987 16 10.8933 16 12C16 13.1067 15.6101 14.0501 14.8304 14.8304C14.0501 15.6101 13.1067 16 12 16ZM0 15.2V1.6C0 1.16 0.156533 0.7832 0.4696 0.4696C0.7832 0.156533 1.16 0 1.6 0H12.8C13.24 0 13.6168 0.156533 13.9304 0.4696C14.2435 0.7832 14.4 1.16 14.4 1.6V6.94C14.0267 6.75333 13.6368 6.61653 13.2304 6.5296C12.8235 6.4432 12.4133 6.4 12 6.4H2.4V8H8.08C7.85333 8.22667 7.6432 8.47333 7.4496 8.74C7.25653 9.00667 7.08667 9.29333 6.94 9.6H2.4V11.2H6.46C6.43333 11.3333 6.41653 11.4635 6.4096 11.5904C6.4032 11.7168 6.4 11.8533 6.4 12C6.4 12.56 6.4768 13.0968 6.6304 13.6104C6.78347 14.1235 7.01333 14.6133 7.32 15.08L7.2 15.2L6 14L4.8 15.2L3.6 14L2.4 15.2L1.2 14L0 15.2Z" fill="#F5F5F5"/>
</svg>
