<svg width="12" height="12" viewBox="0 0 12 12" fill="none" xmlns="http://www.w3.org/2000/svg">
<path d="M11.994 1.2C11.994 0.54 11.46 0 10.8 0H1.2C0.54 0 0 0.54 0 1.2V8.4C0 9.06 0.54 9.6 1.2 9.6H9.6L12 12L11.994 1.2ZM9 7.2H3C2.67 7.2 2.4 6.93 2.4 6.6C2.4 6.27 2.67 6 3 6H9C9.33 6 9.6 6.27 9.6 6.6C9.6 6.93 9.33 7.2 9 7.2ZM9 5.4H3C2.67 5.4 2.4 5.13 2.4 4.8C2.4 4.47 2.67 4.2 3 4.2H9C9.33 4.2 9.6 4.47 9.6 4.8C9.6 5.13 9.33 5.4 9 5.4ZM9 3.6H3C2.67 3.6 2.4 3.33 2.4 3C2.4 2.67 2.67 2.4 3 2.4H9C9.33 2.4 9.6 2.67 9.6 3C9.6 3.33 9.33 3.6 9 3.6Z" fill="white"/>
</svg>
