<svg width="12" height="12" viewBox="0 0 12 12" fill="none" xmlns="http://www.w3.org/2000/svg">
<path d="M3.84 9L6 6.84L8.16 9L9 8.16L6.84 6L9 3.84L8.16 3L6 5.16L3.84 3L3 3.84L5.16 6L3 8.16L3.84 9ZM6 12C5.17 12 4.39 11.8424 3.66 11.5272C2.93 11.2124 2.295 10.785 1.755 10.245C1.215 9.705 0.7876 9.07 0.4728 8.34C0.1576 7.61 0 6.83 0 6C0 5.17 0.1576 4.39 0.4728 3.66C0.7876 2.93 1.215 2.295 1.755 1.755C2.295 1.215 2.93 0.7874 3.66 0.4722C4.39 0.1574 5.17 0 6 0C6.83 0 7.61 0.1574 8.34 0.4722C9.07 0.7874 9.705 1.215 10.245 1.755C10.785 2.295 11.2124 2.93 11.5272 3.66C11.8424 4.39 12 5.17 12 6C12 6.83 11.8424 7.61 11.5272 8.34C11.2124 9.07 10.785 9.705 10.245 10.245C9.705 10.785 9.07 11.2124 8.34 11.5272C7.61 11.8424 6.83 12 6 12Z" fill="#080C2F"/>
</svg>
