<svg width="15" height="16" viewBox="0 0 15 16" fill="none" xmlns="http://www.w3.org/2000/svg">
<path d="M1.57895 16C1.14474 16 0.773158 15.8435 0.46421 15.5304C0.154737 15.2168 0 14.84 0 14.4V1.6C0 1.16 0.154737 0.7832 0.46421 0.4696C0.773158 0.156533 1.14474 0 1.57895 0H7.89474L12.6316 4.8V7.28L6.31579 13.66V16H1.57895ZM7.89474 16V14.3L11.9605 10.16L13.6579 11.84L9.57237 16H7.89474ZM14.2303 11.28L12.5526 9.58L13.1053 9.02C13.2632 8.86 13.4539 8.78 13.6776 8.78C13.9013 8.78 14.0855 8.86 14.2303 9.02L14.7829 9.6C14.9276 9.76 15 9.94987 15 10.1696C15 10.3899 14.9276 10.5733 14.7829 10.72L14.2303 11.28ZM7.10526 5.6H11.0526L7.10526 1.6V5.6Z" fill="#080C2F"/>
</svg>
