<svg width="24" height="15" viewBox="0 0 24 15" fill="none" xmlns="http://www.w3.org/2000/svg">
<path d="M12 0C12.9283 0 13.8185 0.381465 14.4749 1.06048C15.1313 1.73949 15.5 2.66042 15.5 3.62069C15.5 4.58096 15.1313 5.50189 14.4749 6.1809C13.8185 6.85991 12.9283 7.24138 12 7.24138C11.0717 7.24138 10.1815 6.85991 9.52513 6.1809C8.86875 5.50189 8.5 4.58096 8.5 3.62069C8.5 2.66042 8.86875 1.73949 9.52513 1.06048C10.1815 0.381465 11.0717 0 12 0ZM5 2.58621C5.56 2.58621 6.08 2.74138 6.53 3.02069C6.38 4.5 6.8 5.96897 7.66 7.11724C7.16 8.11034 6.16 8.7931 5 8.7931C4.20435 8.7931 3.44129 8.46613 2.87868 7.88412C2.31607 7.30212 2 6.51274 2 5.68965C2 4.86657 2.31607 4.07719 2.87868 3.49519C3.44129 2.91318 4.20435 2.58621 5 2.58621ZM19 2.58621C19.7956 2.58621 20.5587 2.91318 21.1213 3.49519C21.6839 4.07719 22 4.86657 22 5.68965C22 6.51274 21.6839 7.30212 21.1213 7.88412C20.5587 8.46613 19.7956 8.7931 19 8.7931C17.84 8.7931 16.84 8.11034 16.34 7.11724C17.2119 5.95285 17.6166 4.48572 17.47 3.02069C17.92 2.74138 18.44 2.58621 19 2.58621ZM5.5 13.1897C5.5 11.0483 8.41 9.31034 12 9.31034C15.59 9.31034 18.5 11.0483 18.5 13.1897V15H5.5V13.1897ZM0 15V13.4483C0 12.0103 1.89 10.8 4.45 10.4483C3.86 11.1517 3.5 12.1241 3.5 13.1897V15H0ZM24 15H20.5V13.1897C20.5 12.1241 20.14 11.1517 19.55 10.4483C22.11 10.8 24 12.0103 24 13.4483V15Z" fill="#080C2F"/>
</svg>
