<svg width="10" height="12" viewBox="0 0 10 12" fill="none" xmlns="http://www.w3.org/2000/svg">
<path d="M5 0L10 2.18182V5.45455C10 8.48182 7.86667 11.3127 5 12C2.13333 11.3127 0 8.48182 0 5.45455V2.18182L5 0ZM5 1.18909L1.11111 2.89091V5.57455C1.11111 7.93091 2.91667 10.3636 5 10.9091C7.08333 10.3636 8.88889 7.93091 8.88889 5.57455V2.89091L5 1.18909ZM7.22222 7.09091V7.95818C7.2 8.07818 7.1 8.16 6.96111 8.18182H3.03889C2.9 8.16 2.8 8.07818 2.77778 7.95818V7.09091H7.22222ZM7.77778 3.81818L7.22222 6.54545H2.77778L2.22222 3.81818L3.70556 5.27455L5 4.00364L6.29444 5.27455L7.77778 3.81818Z" fill="#080C2F"/>
</svg>
