<svg width="10" height="8" viewBox="0 0 10 8" fill="none" xmlns="http://www.w3.org/2000/svg">
<path d="M8.375 0C8.5884 0 8.79971 0.0420188 8.99686 0.123657C9.19401 0.205296 9.37315 0.324955 9.52405 0.475803C9.67494 0.626651 9.79464 0.805734 9.8763 1.00283C9.95797 1.19992 10 1.41116 10 1.62449V6.37551C10 6.58884 9.95797 6.80008 9.8763 6.99717C9.79464 7.19427 9.67494 7.37335 9.52405 7.5242C9.37315 7.67505 9.19401 7.7947 8.99686 7.87634C8.79971 7.95798 8.5884 8 8.375 8H1.625C1.4116 8 1.20029 7.95798 1.00314 7.87634C0.805985 7.7947 0.626847 7.67505 0.475951 7.5242C0.325056 7.37335 0.20536 7.19427 0.123696 6.99717C0.0420318 6.80008 3.48759e-09 6.58884 3.48759e-09 6.37551V1.62449C-2.71734e-05 1.20955 0.158777 0.810333 0.443836 0.508726C0.728895 0.207119 1.1186 0.0259912 1.533 0.00249928L1.625 0H8.375ZM3.6265 4.24867H1.875C1.78438 4.24868 1.69683 4.28148 1.62853 4.34103C1.56024 4.40057 1.51582 4.48282 1.5035 4.57257L1.5 4.62356V4.91396C1.5 5.55027 1.984 5.87317 2.7505 5.87317C3.4835 5.87317 3.9585 5.57826 3.9985 4.99594L4.0015 4.91446V4.62356C4.00148 4.53289 3.96859 4.4453 3.90893 4.37702C3.84926 4.30874 3.76687 4.26438 3.677 4.25217L3.6265 4.24867ZM5.125 4.24867L4.417 4.24817C4.46 4.33914 4.488 4.43861 4.4975 4.54358L4.5015 4.62356V4.91446L4.4965 5.04143C4.48696 5.19578 4.45234 5.34755 4.394 5.49078C4.448 5.49578 4.504 5.49828 4.5625 5.49828C5.0885 5.49828 5.459 5.29485 5.497 4.86348L5.5 4.79V4.62356C5.5 4.53297 5.46718 4.44544 5.40762 4.37717C5.34805 4.30889 5.26578 4.26449 5.176 4.25217L5.125 4.24867ZM8.125 4.24867H6.625L6.574 4.25217C6.48424 4.26452 6.40199 4.30893 6.34246 4.3772C6.28292 4.44547 6.25011 4.53298 6.25011 4.62356C6.25011 4.71413 6.28292 4.80164 6.34246 4.86991C6.40199 4.93818 6.48424 4.98259 6.574 4.99494L6.625 4.99844H8.125L8.176 4.99494C8.26576 4.98259 8.34801 4.93818 8.40755 4.86991C8.46708 4.80164 8.49988 4.71413 8.49988 4.62356C8.49988 4.53298 8.46708 4.44547 8.40755 4.3772C8.34801 4.30893 8.26576 4.26452 8.176 4.25217L8.125 4.24867ZM2.75 2.2493C2.55102 2.2493 2.36019 2.32832 2.21949 2.46897C2.07879 2.60963 1.99975 2.8004 1.99975 2.99931C1.99975 3.19823 2.07879 3.389 2.21949 3.52965C2.36019 3.67031 2.55102 3.74933 2.75 3.74933C2.94898 3.74933 3.13981 3.67031 3.28051 3.52965C3.42121 3.389 3.50025 3.19823 3.50025 2.99931C3.50025 2.8004 3.42121 2.60963 3.28051 2.46897C3.13981 2.32832 2.94898 2.2493 2.75 2.2493ZM4.685 2.50022C4.60306 2.50022 4.52191 2.51635 4.44621 2.5477C4.3705 2.57905 4.30171 2.625 4.24377 2.68293C4.18582 2.74085 4.13986 2.80962 4.1085 2.8853C4.07714 2.96099 4.061 3.0421 4.061 3.12402C4.061 3.20594 4.07714 3.28706 4.1085 3.36274C4.13986 3.43843 4.18582 3.50719 4.24377 3.56512C4.30171 3.62305 4.3705 3.669 4.44621 3.70034C4.52191 3.73169 4.60306 3.74783 4.685 3.74783C4.85049 3.74783 5.00921 3.68211 5.12623 3.56512C5.24326 3.44813 5.309 3.28947 5.309 3.12402C5.309 2.95858 5.24326 2.79991 5.12623 2.68293C5.00921 2.56594 4.85049 2.50022 4.685 2.50022ZM8.125 2.74914H6.625L6.574 2.75264C6.48424 2.76499 6.40199 2.8094 6.34246 2.87767C6.28292 2.94594 6.25011 3.03345 6.25011 3.12402C6.25011 3.2146 6.28292 3.30211 6.34246 3.37038C6.40199 3.43865 6.48424 3.48306 6.574 3.49541L6.625 3.49891H8.125L8.176 3.49541C8.26576 3.48306 8.34801 3.43865 8.40755 3.37038C8.46708 3.30211 8.49988 3.2146 8.49988 3.12402C8.49988 3.03345 8.46708 2.94594 8.40755 2.87767C8.34801 2.8094 8.26576 2.76499 8.176 2.75264L8.125 2.74914Z" fill="#06113E"/>
</svg>
