<svg width="11" height="11" viewBox="0 0 11 11" fill="none" xmlns="http://www.w3.org/2000/svg">
<path d="M5.4945 0C2.4585 0 0 2.464 0 5.5C0 8.536 2.4585 11 5.4945 11C8.536 11 11 8.536 11 5.5C11 2.464 8.536 0 5.4945 0ZM3.575 3.3C4.0315 3.3 4.4 3.6685 4.4 4.125C4.4 4.5815 4.0315 4.95 3.575 4.95C3.1185 4.95 2.75 4.5815 2.75 4.125C2.75 3.6685 3.1185 3.3 3.575 3.3ZM8.0905 6.996C7.59 8.0685 6.622 8.8 5.5 8.8C4.378 8.8 3.41 8.0685 2.9095 6.996C2.8215 6.8145 2.9535 6.6 3.157 6.6H7.843C8.0465 6.6 8.1785 6.8145 8.0905 6.996ZM7.425 4.95C6.9685 4.95 6.6 4.5815 6.6 4.125C6.6 3.6685 6.9685 3.3 7.425 3.3C7.8815 3.3 8.25 3.6685 8.25 4.125C8.25 4.5815 7.8815 4.95 7.425 4.95Z" fill="white"/>
</svg>
