<svg width="20" height="20" viewBox="0 0 20 20" fill="none" xmlns="http://www.w3.org/2000/svg">
<path d="M16.3619 20H14.2978C13.9537 20 13.6239 19.8705 13.3814 19.6402C13.139 19.4099 13.0041 19.0978 13.0066 18.7733V15.7156C13.0066 15.3408 12.8487 14.9813 12.5677 14.7162C12.2866 14.4512 11.9055 14.3023 11.508 14.3023H8.48256C7.65492 14.3023 6.98398 14.9351 6.98398 15.7156L16.3619 20ZM16.3619 20C17.3259 20.0023 18.2513 19.6428 18.9339 19.0008C19.6164 18.3588 20 17.487 20 16.5778V7.86685C20 7.13246 19.6548 6.43584 19.0575 5.96467L16.3619 20ZM6.48398 15.7156V18.4064L6.45851 18.4144L6.45572 18.7784C6.45286 19.1508 6.12276 19.5 5.65504 19.5H3.63808C1.87696 19.5 0.5 18.1605 0.5 16.5689V7.87341C0.51626 7.29122 0.808821 6.73686 1.31298 6.36831L1.31303 6.36839L1.32056 6.36266L8.18201 1.14498L8.18899 1.13967L8.19577 1.13412C9.2013 0.31231 10.6955 0.286099 11.7335 1.07411L11.735 1.07525L18.752 6.36049C19.2315 6.74073 19.5 7.29349 19.5 7.86685V16.5778C19.5 17.3443 19.1769 18.0858 18.5913 18.6366C18.0047 19.1884 17.2035 19.502 16.3631 19.5H16.3619H14.2978C14.0778 19.5 13.8724 19.4169 13.7258 19.2777C13.5803 19.1394 13.5052 18.9586 13.5066 18.7772H13.5066V18.7733V15.7156C13.5066 15.1984 13.2885 14.7087 12.9107 14.3525C12.534 13.9972 12.0289 13.8023 11.508 13.8023H8.48256C7.40678 13.8023 6.48398 14.6317 6.48398 15.7156Z" stroke="#AAAAAA"/>
</svg>
