<svg width="34" height="20" viewBox="0 0 34 20" fill="none" xmlns="http://www.w3.org/2000/svg">
<path d="M26.9167 17.1429V20H9.91667V17.1429C9.91667 17.1429 9.91667 11.4286 18.4167 11.4286C26.9167 11.4286 26.9167 17.1429 26.9167 17.1429ZM22.6667 4.28572C22.6667 3.43808 22.4174 2.60948 21.9504 1.9047C21.4834 1.19992 20.8197 0.650608 20.0431 0.326232C19.2665 0.00185694 18.412 -0.0830145 17.5875 0.0823507C16.7631 0.247716 16.0058 0.65589 15.4115 1.25526C14.8171 1.85463 14.4123 2.61827 14.2483 3.44961C14.0843 4.28096 14.1685 5.14268 14.4902 5.92579C14.8119 6.7089 15.3566 7.37824 16.0555 7.84916C16.7544 8.32008 17.5761 8.57143 18.4167 8.57143C19.5438 8.57143 20.6248 8.1199 21.4219 7.31617C22.2189 6.51245 22.6667 5.42236 22.6667 4.28572ZM27.2 11.5143C27.9744 12.2347 28.5987 13.1035 29.0365 14.0699C29.4744 15.0363 29.7169 16.0809 29.75 17.1429V20H34V17.1429C34 17.1429 34 12.2143 27.2 11.5143ZM25.5 1.63072e-06C25.072 0.000259935 24.6466 0.0677349 24.2392 0.200001C25.068 1.39853 25.5124 2.82455 25.5124 4.28572C25.5124 5.74688 25.068 7.1729 24.2392 8.37143C24.6466 8.5037 25.072 8.57117 25.5 8.57143C26.6272 8.57143 27.7082 8.1199 28.5052 7.31617C29.3022 6.51245 29.75 5.42236 29.75 4.28572C29.75 3.14907 29.3022 2.05899 28.5052 1.25526C27.7082 0.451531 26.6272 1.63072e-06 25.5 1.63072e-06ZM11.3333 7.14286H7.08333V2.85714H4.25V7.14286H0V10H4.25V14.2857H7.08333V10H11.3333V7.14286Z" fill="#080C2F"/>
</svg>
