<svg width="28" height="21" viewBox="0 0 28 21" fill="none" xmlns="http://www.w3.org/2000/svg">
<path d="M14 0C15.083 0 16.1216 0.432327 16.8874 1.20187C17.6531 1.97142 18.0833 3.01515 18.0833 4.10345C18.0833 5.19175 17.6531 6.23548 16.8874 7.00502C16.1216 7.77457 15.083 8.2069 14 8.2069C12.917 8.2069 11.8784 7.77457 11.1126 7.00502C10.3469 6.23548 9.91667 5.19175 9.91667 4.10345C9.91667 3.01515 10.3469 1.97142 11.1126 1.20187C11.8784 0.432327 12.917 0 14 0ZM5.83333 2.93103C6.48667 2.93103 7.09333 3.1069 7.61833 3.42345C7.44333 5.1 7.93333 6.76483 8.93667 8.06621C8.35333 9.19172 7.18667 9.96552 5.83333 9.96552C4.90508 9.96552 4.01484 9.59495 3.35846 8.93534C2.70208 8.27573 2.33333 7.38111 2.33333 6.44828C2.33333 5.51545 2.70208 4.62082 3.35846 3.96121C4.01484 3.3016 4.90508 2.93103 5.83333 2.93103ZM22.1667 2.93103C23.0949 2.93103 23.9852 3.3016 24.6415 3.96121C25.2979 4.62082 25.6667 5.51545 25.6667 6.44828C25.6667 7.38111 25.2979 8.27573 24.6415 8.93534C23.9852 9.59495 23.0949 9.96552 22.1667 9.96552C20.8133 9.96552 19.6467 9.19172 19.0633 8.06621C20.0805 6.74656 20.5527 5.08382 20.3817 3.42345C20.9067 3.1069 21.5133 2.93103 22.1667 2.93103ZM6.41667 14.9483C6.41667 12.5214 9.81167 10.5517 14 10.5517C18.1883 10.5517 21.5833 12.5214 21.5833 14.9483V17H6.41667V14.9483ZM0 17V15.2414C0 13.6117 2.205 12.24 5.19167 11.8414C4.50333 12.6386 4.08333 13.7407 4.08333 14.9483V17H0ZM28 17H23.9167V14.9483C23.9167 13.7407 23.4967 12.6386 22.8083 11.8414C25.795 12.24 28 13.6117 28 15.2414V17Z" fill="#080C2F"/>
<path fill-rule="evenodd" clip-rule="evenodd" d="M26.8839 10.1161C27.372 10.6043 27.372 11.3957 26.8839 11.8839L18.8826 19.8851L14.5133 14.2674C14.0895 13.7225 14.1876 12.9371 14.7326 12.5133C15.2775 12.0895 16.0628 12.1876 16.4867 12.7326L19.1174 16.1149L25.1161 10.1161C25.6043 9.62796 26.3957 9.62796 26.8839 10.1161Z" fill="#080C2F" stroke="#E3E5EA" stroke-width="0.5" stroke-linecap="round"/>
</svg>
