<svg width="24" height="22" viewBox="0 0 24 22" fill="none" xmlns="http://www.w3.org/2000/svg">
<path d="M16.3582 18.752L15.7182 13.628C15.6275 12.9022 15.2748 12.2346 14.7264 11.7506C14.178 11.2667 13.4717 10.9997 12.7402 11H10.5362C9.80517 11.0002 9.09932 11.2674 8.55133 11.7513C8.00333 12.2352 7.6509 12.9026 7.56024 13.628L6.91924 18.752C6.88407 19.0335 6.90918 19.3193 6.99292 19.5903C7.07666 19.8614 7.21712 20.1116 7.40495 20.3242C7.59279 20.5368 7.8237 20.707 8.08237 20.8235C8.34104 20.94 8.62154 21.0002 8.90524 21H14.3732C14.6569 21.0001 14.9372 20.9398 15.1958 20.8232C15.4543 20.7066 15.6851 20.5364 15.8729 20.3238C16.0606 20.1112 16.201 19.8611 16.2846 19.5901C16.3683 19.3191 16.3934 19.0334 16.3582 18.752Z" stroke="#080C2F" stroke-width="2" stroke-linecap="round" stroke-linejoin="round"/>
<path d="M11.6393 7C13.2961 7 14.6393 5.65685 14.6393 4C14.6393 2.34315 13.2961 1 11.6393 1C9.9824 1 8.63925 2.34315 8.63925 4C8.63925 5.65685 9.9824 7 11.6393 7Z" stroke="#080C2F" stroke-width="2"/>
<path d="M3.63925 10C4.74382 10 5.63925 9.10457 5.63925 8C5.63925 6.89543 4.74382 6 3.63925 6C2.53468 6 1.63925 6.89543 1.63925 8C1.63925 9.10457 2.53468 10 3.63925 10Z" stroke="#080C2F" stroke-width="2"/>
<path d="M19.6393 10C20.7438 10 21.6393 9.10457 21.6393 8C21.6393 6.89543 20.7438 6 19.6393 6C18.5347 6 17.6393 6.89543 17.6393 8C17.6393 9.10457 18.5347 10 19.6393 10Z" stroke="#080C2F" stroke-width="2"/>
<path d="M3.63925 13H3.33325C2.85981 12.9999 2.4017 13.1678 2.04042 13.4738C1.67914 13.7798 1.43813 14.204 1.36025 14.671L1.02725 16.671C0.979458 16.9575 0.994667 17.2511 1.07181 17.5311C1.14896 17.8112 1.2862 18.0711 1.47397 18.2928C1.66175 18.5144 1.89556 18.6925 2.15914 18.8146C2.42272 18.9368 2.70974 19 3.00025 19H6.63925M19.6392 13H19.9452C20.4187 12.9999 20.8768 13.1678 21.2381 13.4738C21.5993 13.7798 21.8404 14.204 21.9182 14.671L22.2512 16.671C22.299 16.9575 22.2838 17.2511 22.2067 17.5311C22.1295 17.8112 21.9923 18.0711 21.8045 18.2928C21.6167 18.5144 21.3829 18.6925 21.1194 18.8146C20.8558 18.9368 20.5687 19 20.2782 19H16.6392" stroke="#080C2F" stroke-width="2" stroke-linecap="round" stroke-linejoin="round"/>
</svg>
