<svg width="24" height="17" viewBox="0 0 24 17" fill="none" xmlns="http://www.w3.org/2000/svg">
<path d="M7.2 8.5C9.52125 8.5 11.4 6.59888 11.4 4.25C11.4 1.90112 9.52125 0 7.2 0C4.87875 0 3 1.90112 3 4.25C3 6.59888 4.87875 8.5 7.2 8.5ZM10.08 9.71429H9.76875C8.98875 10.0938 8.1225 10.3214 7.2 10.3214C6.2775 10.3214 5.415 10.0938 4.63125 9.71429H4.32C1.935 9.71429 0 11.6723 0 14.0857V15.1786C0 16.1842 0.80625 17 1.8 17H12.6C13.5938 17 14.4 16.1842 14.4 15.1786V14.0857C14.4 11.6723 12.465 9.71429 10.08 9.71429ZM18 8.5C19.9875 8.5 21.6 6.8683 21.6 4.85714C21.6 2.84598 19.9875 1.21429 18 1.21429C16.0125 1.21429 14.4 2.84598 14.4 4.85714C14.4 6.8683 16.0125 8.5 18 8.5ZM19.8 9.71429H19.6575C19.1363 9.89643 18.585 10.0179 18 10.0179C17.415 10.0179 16.8638 9.89643 16.3425 9.71429H16.2C15.435 9.71429 14.73 9.93817 14.1113 10.2987C15.0263 11.2967 15.6 12.621 15.6 14.0857V15.5429C15.6 15.6263 15.5813 15.706 15.5775 15.7857H22.2C23.1938 15.7857 24 14.9699 24 13.9643C24 11.6154 22.1213 9.71429 19.8 9.71429Z" fill="#080C2F"/>
</svg>
