<svg width="11" height="11" viewBox="0 0 11 11" fill="none" xmlns="http://www.w3.org/2000/svg">
<path fill-rule="evenodd" clip-rule="evenodd" d="M6.01897 9.58621C5.87118 9.61354 5.72211 9.63338 5.57232 9.64566V8.91735H4.82914V9.64566C3.77371 9.55721 2.78421 9.09603 2.03775 8.34466C1.29129 7.5933 0.836596 6.6008 0.755051 5.54482H1.48485V4.80164H0.75951C0.853604 3.75644 1.31326 2.7779 2.05763 2.03816C2.80199 1.29842 3.78338 0.844863 4.82914 0.75728V1.48559H5.57232V0.75728C6.62303 0.845152 7.60863 1.30245 8.35419 2.04801C9.09975 2.79357 9.55705 3.77917 9.64492 4.82988H8.91661V5.57306H9.64492C9.63264 5.72285 9.61279 5.87192 9.58547 6.01971C9.83369 6.07693 10.07 6.16537 10.2915 6.28056C10.524 5.18333 10.3956 4.04033 9.92556 3.02199C9.4555 2.00365 8.66891 1.16449 7.68305 0.629628C6.6972 0.0947661 5.56489 -0.107157 4.45493 0.0539627C3.34496 0.215082 2.31679 0.730616 1.5237 1.5237C0.730616 2.31679 0.215082 3.34496 0.0539627 4.45493C-0.107157 5.56489 0.0947661 6.6972 0.629628 7.68306C1.16449 8.66891 2.00365 9.4555 3.02199 9.92556C4.04033 10.3956 5.18333 10.524 6.28056 10.2915C6.16359 10.0683 6.07568 9.83175 6.01897 9.58621ZM6.61574 7.03489L4.45012 5.95208L2.94668 2.94742L5.95059 4.45086L7.03489 6.61574C6.88166 6.74098 6.74125 6.88114 6.61574 7.03414V7.03489ZM6.26719 6.26793L5.5582 4.84475L4.13427 4.13501L4.84326 5.55968L6.26719 6.26793Z" fill="#080C2F"/>
</svg>
