<svg width="16" height="18" viewBox="0 0 16 18" fill="none" xmlns="http://www.w3.org/2000/svg">
<path d="M15.478 9.57746C15.814 9.11951 16 8.55841 16 7.97463C16 7.0484 15.498 6.17169 14.69 5.68279C14.482 5.55695 14.2452 5.49072 14.004 5.49095H9.208L9.328 2.9557C9.356 2.34303 9.146 1.76131 8.738 1.31779C8.53777 1.09919 8.29621 0.925259 8.02823 0.806752C7.76026 0.688246 7.47157 0.627681 7.18 0.628799C6.14 0.628799 5.22 1.3508 4.944 2.38429L3.226 8.79977H3.22V17.6288H12.666C12.85 17.6288 13.03 17.5917 13.196 17.5174C14.148 17.0986 14.762 16.1394 14.762 15.075C14.762 14.8151 14.726 14.5593 14.654 14.3117C14.99 13.8538 15.176 13.2927 15.176 12.7089C15.176 12.449 15.14 12.1932 15.068 11.9456C15.404 11.4877 15.59 10.9266 15.59 10.3428C15.586 10.0829 15.55 9.82501 15.478 9.57746ZM0 9.45988V16.9687C0 17.3338 0.286 17.6288 0.64 17.6288H1.94V8.79977H0.64C0.286 8.79977 0 9.09476 0 9.45988Z" fill="white"/>
</svg>
