<svg width="11" height="10" viewBox="0 0 11 10" fill="none" xmlns="http://www.w3.org/2000/svg">
<path d="M9.93891 7.5C10.2386 7.5 10.4912 7.6 10.6968 7.8C10.9024 8 11.0034 8.23333 10.9999 8.5L6.80295 10L3.14433 9V4.5H4.16351L7.96325 5.845C8.23504 5.94833 8.37093 6.135 8.37093 6.405C8.37093 6.56167 8.3117 6.69833 8.19323 6.815C8.07476 6.93167 7.92493 6.99333 7.74374 7H6.28029L5.36563 6.665L5.19315 7.135L6.28029 7.5H9.93891ZM7.84827 0.615C8.21762 0.205 8.68801 0 9.25945 0C9.73333 0 10.134 0.166667 10.4616 0.5C10.7891 0.833333 10.9633 1.21667 10.9842 1.65C10.9842 1.99333 10.81 2.40333 10.4616 2.88C10.1131 3.35667 9.76992 3.755 9.43193 4.075C9.09394 4.395 8.56606 4.87 7.84827 5.5C7.12351 4.87 6.5904 4.395 6.24893 4.075C5.90746 3.755 5.56424 3.35667 5.21929 2.88C4.87433 2.40333 4.70534 1.99333 4.71231 1.65C4.71231 1.19667 4.8813 0.813333 5.21929 0.5C5.55727 0.186667 5.96495 0.02 6.44231 0C6.99982 0 7.46847 0.205 7.84827 0.615ZM0 4.5H2.099V10H0V4.5Z" fill="white"/>
</svg>
