<svg width="20" height="21" viewBox="0 0 20 21" fill="none" xmlns="http://www.w3.org/2000/svg">
<path d="M20 4.5C20 6.43 18.2556 8 16.1111 8C13.9667 8 12.2222 6.43 12.2222 4.5C12.2222 2.57 13.9667 1 16.1111 1C18.2556 1 20 2.57 20 4.5ZM17.7778 9.79C17.2222 9.92 16.6667 10 16.1111 10C14.4912 9.99736 12.9386 9.41705 11.7931 8.38617C10.6477 7.35529 10.0029 5.95788 10 4.5C10 3.03 10.6444 1.7 11.6667 0.710005C11.465 0.487546 11.2108 0.308375 10.9225 0.185549C10.6341 0.0627231 10.319 -0.000664504 10 5.25268e-06C8.77778 5.25268e-06 7.77778 0.900005 7.77778 2V2.29C4.47778 3.17 2.22222 5.9 2.22222 9V15L0 17V18H20V17L17.7778 15V9.79ZM10 21C11.2333 21 12.2222 20.11 12.2222 19H7.77778C7.77778 19.5304 8.0119 20.0391 8.42865 20.4142C8.8454 20.7893 9.41063 21 10 21Z" fill="#080C2F"/>
</svg>
