<svg width="42" height="41" viewBox="0 0 42 41" fill="none" xmlns="http://www.w3.org/2000/svg">
<path d="M18.9318 27.8209C18.2247 28.2741 17.5 28.309 16.7576 27.9255C16.0152 27.542 15.6439 26.9319 15.6439 26.0953V14.9049C15.6439 14.0682 16.0152 13.4581 16.7576 13.0747C17.5 12.6912 18.2247 12.7261 18.9318 13.1792L27.7348 18.7222C28.053 18.9313 28.2913 19.1928 28.4497 19.5065C28.6095 19.8203 28.6894 20.1515 28.6894 20.5001C28.6894 20.8487 28.6095 21.1799 28.4497 21.4936C28.2913 21.8074 28.053 22.0688 27.7348 22.278L18.9318 27.8209ZM16.3864 40.9461C15.149 40.6672 13.9562 40.3012 12.8079 39.848C11.6582 39.3948 10.5354 38.8196 9.43939 38.1223C8.87374 37.7737 8.56475 37.2857 8.51242 36.6582C8.45869 36.0307 8.67929 35.4729 9.17424 34.9848C9.52778 34.6362 9.97818 34.4361 10.5255 34.3845C11.0741 34.3316 11.5783 34.4445 12.0379 34.7234C12.8157 35.2114 13.6203 35.6207 14.4518 35.9512C15.2819 36.2831 16.1389 36.5536 17.0227 36.7628C17.5177 36.9022 17.9334 37.1727 18.27 37.5743C18.6052 37.9745 18.7727 38.4187 18.7727 38.9067C18.7727 39.6039 18.5344 40.1527 18.0579 40.5529C17.5799 40.9545 17.0227 41.0855 16.3864 40.9461ZM6.15152 32.0042C5.65657 32.4923 5.1001 32.7098 4.48212 32.6568C3.86273 32.6052 3.37626 32.318 3.02273 31.7951C2.31566 30.7841 1.72384 29.7125 1.24727 28.5802C0.769293 27.4465 0.388889 26.2521 0.106061 24.9971C-0.0707069 24.3696 0.0438384 23.8119 0.449697 23.3238C0.85697 22.8358 1.41414 22.5917 2.12121 22.5917C2.61616 22.5917 3.07576 22.766 3.5 23.1147C3.92424 23.4633 4.20707 23.8816 4.34849 24.3697C4.56061 25.276 4.84344 26.1301 5.19697 26.9319C5.55051 27.7337 5.95707 28.5181 6.41667 29.2851C6.6995 29.7034 6.81404 30.174 6.7603 30.6969C6.70798 31.2199 6.50505 31.6556 6.15152 32.0042ZM2.17424 18.4084C1.46717 18.4084 0.901515 18.1644 0.477273 17.6763C0.0530304 17.1883 -0.0883839 16.6305 0.0530303 16.003C0.335859 14.7829 0.724747 13.5885 1.2197 12.42C1.71465 11.2528 2.31566 10.1638 3.02273 9.15279C3.37626 8.62987 3.86273 8.35099 4.48212 8.31612C5.1001 8.28126 5.65657 8.50786 6.15152 8.99592C6.50505 9.34453 6.70798 9.78029 6.7603 10.3032C6.81404 10.8261 6.6995 11.2967 6.41667 11.7151C5.95707 12.4472 5.55051 13.2225 5.19697 14.041C4.84344 14.8609 4.56061 15.7241 4.34849 16.6305C4.20707 17.1185 3.93343 17.5369 3.52758 17.8855C3.1203 18.2341 2.66919 18.4084 2.17424 18.4084ZM25.3485 40.8938C24.7121 41.0332 24.1641 40.9112 23.7045 40.5278C23.2449 40.1443 23.0152 39.6214 23.0152 38.959C23.0152 38.471 23.1834 38.0178 23.52 37.5994C23.8552 37.1811 24.2702 36.9022 24.7652 36.7628C28.548 35.7867 31.6591 33.8086 34.0985 30.8287C36.5379 27.8474 37.7576 24.4045 37.7576 20.5001C37.7576 16.5956 36.5379 13.127 34.0985 10.094C31.6591 7.06113 28.548 5.09147 24.7652 4.18509C24.2702 4.04564 23.8552 3.77512 23.52 3.37352C23.1834 2.97332 23.0152 2.52919 23.0152 2.04113C23.0152 1.37877 23.2541 0.846789 23.7321 0.44519C24.2087 0.0449844 24.7652 -0.0853961 25.4015 0.0540482C30.2449 1.09988 34.2222 3.52273 37.3333 7.32258C40.4444 11.1224 42 15.5149 42 20.5001C42 25.4503 40.436 29.808 37.3079 33.573C34.1784 37.338 30.1919 39.7783 25.3485 40.8938ZM11.8788 6.32904C11.4192 6.60793 10.9334 6.71251 10.4215 6.64279C9.90818 6.57307 9.47475 6.3639 9.12121 6.01529C8.62626 5.52724 8.40566 4.96946 8.45939 4.34196C8.51172 3.71446 8.82071 3.22641 9.38636 2.8778C10.4823 2.18057 11.6136 1.60537 12.7803 1.15217C13.947 0.698978 15.149 0.332937 16.3864 0.0540482C17.0227 -0.0853961 17.5799 0.0449844 18.0579 0.44519C18.5344 0.846789 18.7727 1.37877 18.7727 2.04113C18.7727 2.52919 18.596 2.97332 18.2424 3.37352C17.8889 3.77512 17.4646 4.04564 16.9697 4.18509C16.0859 4.39425 15.2197 4.68151 14.3712 5.04685C13.5227 5.41359 12.6919 5.84099 11.8788 6.32904Z" fill="black"/>
</svg>
