<svg width="22" height="25" viewBox="0 0 22 25" fill="none" xmlns="http://www.w3.org/2000/svg">
<path d="M15.8889 18.7117C16.3981 18.7117 16.8308 18.5352 17.1869 18.1822C17.5438 17.8299 17.7222 17.4019 17.7222 16.8981C17.7222 16.3944 17.5438 15.9663 17.1869 15.6141C16.8308 15.2611 16.3981 15.0845 15.8889 15.0845C15.3796 15.0845 14.947 15.2611 14.5909 15.6141C14.234 15.9663 14.0556 16.3944 14.0556 16.8981C14.0556 17.4019 14.234 17.8299 14.5909 18.1822C14.947 18.5352 15.3796 18.7117 15.8889 18.7117ZM15.8889 22.3389C16.5204 22.3389 17.1009 22.1926 17.6306 21.9001C18.1602 21.6083 18.588 21.2206 18.9139 20.7369C18.4657 20.475 17.987 20.2735 17.4778 20.1324C16.9685 19.9913 16.4389 19.9208 15.8889 19.9208C15.3389 19.9208 14.8093 19.9913 14.3 20.1324C13.7907 20.2735 13.312 20.475 12.8639 20.7369C13.1898 21.2206 13.6176 21.6083 14.1472 21.9001C14.6769 22.1926 15.2574 22.3389 15.8889 22.3389ZM15.8889 24.7571C14.1981 24.7571 12.7571 24.1679 11.5659 22.9894C10.3738 21.8102 9.77778 20.3843 9.77778 18.7117C9.77778 17.0392 10.3738 15.6133 11.5659 14.4341C12.7571 13.2556 14.1981 12.6664 15.8889 12.6664C17.5796 12.6664 19.021 13.2556 20.2131 14.4341C21.4044 15.6133 22 17.0392 22 18.7117C22 20.3843 21.4044 21.8102 20.2131 22.9894C19.021 24.1679 17.5796 24.7571 15.8889 24.7571ZM9.77778 24.6664H9.48689C9.39563 24.6664 9.29907 24.6462 9.19722 24.6059C6.5287 23.7999 4.3287 22.1677 2.59722 19.7092C0.865741 17.2508 0 14.5405 0 11.5782V5.86539C0 5.36161 0.147889 4.90821 0.443667 4.50519C0.73863 4.10217 1.12037 3.80998 1.58889 3.62862L8.92222 0.908214C9.20741 0.807458 9.49259 0.75708 9.77778 0.75708C10.063 0.75708 10.3481 0.807458 10.6333 0.908214L17.9667 3.62862C18.4352 3.80998 18.8173 4.10217 19.1131 4.50519C19.4081 4.90821 19.5556 5.36161 19.5556 5.86539V11.0644C18.9648 10.8024 18.3692 10.6009 17.7687 10.4599C17.1673 10.3188 16.5407 10.2483 15.8889 10.2483C13.5259 10.2483 11.5093 11.0745 9.83889 12.7269C8.16852 14.3792 7.33333 16.3742 7.33333 18.7117C7.33333 19.8604 7.53704 20.9336 7.94444 21.9315C8.35185 22.9286 8.97315 23.8402 9.80833 24.6664H9.77778Z" fill="#080C2F"/>
</svg>
