<svg width="15" height="17" viewBox="0 0 15 17" fill="none" xmlns="http://www.w3.org/2000/svg">
<path d="M11.0526 17C9.96053 17 9.02974 16.6055 8.26026 15.8165C7.49026 15.0269 7.10526 14.0722 7.10526 12.9524C7.10526 11.8325 7.49026 10.8778 8.26026 10.0883C9.02974 9.29927 9.96053 8.90476 11.0526 8.90476C12.1447 8.90476 13.0758 9.29927 13.8458 10.0883C14.6153 10.8778 15 11.8325 15 12.9524C15 14.0722 14.6153 15.0269 13.8458 15.8165C13.0758 16.6055 12.1447 17 11.0526 17ZM12.375 14.875L12.9276 14.3083L11.4474 12.7905V10.5238H10.6579V13.1143L12.375 14.875ZM1.57895 16.1905C1.14474 16.1905 0.772895 16.0321 0.463421 15.7153C0.154474 15.398 0 15.0167 0 14.5714V3.2381C0 2.79286 0.154474 2.41157 0.463421 2.09424C0.772895 1.77744 1.14474 1.61905 1.57895 1.61905H4.875C5.01974 1.14683 5.30263 0.758794 5.72368 0.454952C6.14474 0.151651 6.60526 0 7.10526 0C7.63158 0 8.10211 0.151651 8.51684 0.454952C8.93105 0.758794 9.21053 1.14683 9.35526 1.61905H12.6316C13.0658 1.61905 13.4376 1.77744 13.7471 2.09424C14.0561 2.41157 14.2105 2.79286 14.2105 3.2381V8.29762C13.9737 8.12222 13.7237 7.97381 13.4605 7.85238C13.1974 7.73095 12.9211 7.62302 12.6316 7.52857V3.2381H11.0526V5.66667H3.15789V3.2381H1.57895V14.5714H5.76316C5.85526 14.8683 5.96053 15.1516 6.07895 15.4214C6.19737 15.6913 6.34211 15.9476 6.51316 16.1905H1.57895ZM7.10526 3.2381C7.32895 3.2381 7.51658 3.16038 7.66816 3.00495C7.81921 2.85006 7.89474 2.65794 7.89474 2.42857C7.89474 2.19921 7.81921 2.00681 7.66816 1.85138C7.51658 1.69649 7.32895 1.61905 7.10526 1.61905C6.88158 1.61905 6.69421 1.69649 6.54316 1.85138C6.39158 2.00681 6.31579 2.19921 6.31579 2.42857C6.31579 2.65794 6.39158 2.85006 6.54316 3.00495C6.69421 3.16038 6.88158 3.2381 7.10526 3.2381Z" fill="#080C2F"/>
</svg>
