<svg width="12" height="12" viewBox="0 0 12 12" fill="none" xmlns="http://www.w3.org/2000/svg">
<path d="M1.33333 12C0.966667 12 0.652667 11.8696 0.391333 11.6087C0.130444 11.3473 0 11.0333 0 10.6667V1.33333C0 0.966667 0.130444 0.652667 0.391333 0.391333C0.652667 0.130444 0.966667 0 1.33333 0H7.33333V3.33333H8.66667V4.66667H12V10.6667C12 11.0333 11.8696 11.3473 11.6087 11.6087C11.3473 11.8696 11.0333 12 10.6667 12H1.33333ZM2 9.33333H10L7.5 6L5.5 8.66667L4 6.66667L2 9.33333ZM9.33333 4V2.66667H8V1.33333H9.33333V0H10.6667V1.33333H12V2.66667H10.6667V4H9.33333Z" fill="#080C2F"/>
</svg>
