<svg width="20" height="20" viewBox="0 0 20 20" fill="none" xmlns="http://www.w3.org/2000/svg">
<path d="M10 20C11.3132 20 12.6136 19.7413 13.8268 19.2388C15.0401 18.7362 16.1425 17.9997 17.0711 17.0711C17.9997 16.1425 18.7363 15.0401 19.2388 13.8268C19.7413 12.6136 20 11.3132 20 10C20 7.34784 18.9464 4.8043 17.0711 2.92893C15.1957 1.05357 12.6522 1.10609e-06 10 8.74228e-07C8.68678 7.59423e-07 7.38642 0.258658 6.17317 0.761204C4.95991 1.26375 3.85752 2.00035 2.92893 2.92893C1.05357 4.8043 1.10609e-06 7.34784 8.74228e-07 10C6.42368e-07 12.6522 1.05357 15.1957 2.92893 17.0711C4.8043 18.9464 7.34784 20 10 20ZM5 12L10 7L15 12L5 12Z" fill="#080C2F"/>
</svg>
