<svg width="16" height="16" viewBox="0 0 16 16" fill="none" xmlns="http://www.w3.org/2000/svg">
<path d="M8 16C6.89333 16 5.85333 15.7899 4.88 15.3696C3.90667 14.9499 3.06 14.38 2.34 13.66C1.62 12.94 1.05013 12.0933 0.6304 11.12C0.210133 10.1467 0 9.10667 0 8C0 6.89333 0.210133 5.85333 0.6304 4.88C1.05013 3.90667 1.62 3.06 2.34 2.34C3.06 1.62 3.90667 1.04987 4.88 0.6296C5.85333 0.209867 6.89333 0 8 0C9.10667 0 10.1467 0.209867 11.12 0.6296C12.0933 1.04987 12.94 1.62 13.66 2.34C14.38 3.06 14.9499 3.90667 15.3696 4.88C15.7899 5.85333 16 6.89333 16 8C16 9.10667 15.7899 10.1467 15.3696 11.12C14.9499 12.0933 14.38 12.94 13.66 13.66C12.94 14.38 12.0933 14.9499 11.12 15.3696C10.1467 15.7899 9.10667 16 8 16ZM7.2 14.36V12.8C6.76 12.8 6.38347 12.6435 6.0704 12.3304C5.7568 12.0168 5.6 11.64 5.6 11.2V10.4L1.76 6.56C1.72 6.8 1.6832 7.04 1.6496 7.28C1.61653 7.52 1.6 7.76 1.6 8C1.6 9.61333 2.13013 11.0267 3.1904 12.24C4.25013 13.4533 5.58667 14.16 7.2 14.36ZM12.72 12.32C12.9867 12.0267 13.2267 11.7099 13.44 11.3696C13.6533 11.0299 13.8301 10.6765 13.9704 10.3096C14.1101 9.9432 14.2168 9.56667 14.2904 9.18C14.3635 8.79333 14.4 8.4 14.4 8C14.4 6.69333 14.0368 5.5 13.3104 4.42C12.5835 3.34 11.6133 2.56 10.4 2.08V2.4C10.4 2.84 10.2435 3.21653 9.9304 3.5296C9.6168 3.8432 9.24 4 8.8 4H7.2V5.6C7.2 5.82667 7.12347 6.01653 6.9704 6.1696C6.8168 6.3232 6.62667 6.4 6.4 6.4H4.8V8H9.6C9.82667 8 10.0168 8.07653 10.1704 8.2296C10.3235 8.3832 10.4 8.57333 10.4 8.8V11.2H11.2C11.5467 11.2 11.86 11.3032 12.14 11.5096C12.42 11.7165 12.6133 11.9867 12.72 12.32Z" fill="#080C2F"/>
</svg>
