<svg width="19" height="16" viewBox="0 0 19 16" fill="none" xmlns="http://www.w3.org/2000/svg">
<path d="M14.0235 6.22222C15.3434 6.22222 16.6092 6.7373 17.5424 7.65414C18.4757 8.57099 19 9.8145 19 11.1111C19 12.4077 18.4757 13.6512 17.5424 14.5681C16.6092 15.4849 15.3434 16 14.0235 16C12.7037 16 11.4379 15.4849 10.5047 14.5681C9.5714 13.6512 9.04709 12.4077 9.04709 11.1111C9.04709 9.8145 9.5714 8.57099 10.5047 7.65414C11.4379 6.7373 12.7037 6.22222 14.0235 6.22222ZM11.7832 8.91022C11.6984 8.99357 11.6508 9.10659 11.6508 9.22444C11.6508 9.34229 11.6984 9.45532 11.7832 9.53867L13.3838 11.112L11.785 12.6818C11.743 12.723 11.7096 12.772 11.6868 12.826C11.664 12.8799 11.6523 12.9377 11.6522 12.9961C11.6522 13.0545 11.6639 13.1124 11.6866 13.1663C11.7093 13.2203 11.7426 13.2693 11.7846 13.3107C11.8266 13.352 11.8765 13.3848 11.9314 13.4072C11.9863 13.4296 12.0451 13.4411 12.1046 13.4411C12.164 13.4412 12.2229 13.4297 12.2778 13.4074C12.3328 13.3851 12.3827 13.3524 12.4247 13.3111L14.0235 11.7404L15.6251 13.3129C15.6668 13.3553 15.7167 13.3892 15.7719 13.4125C15.8271 13.4358 15.8865 13.448 15.9465 13.4486C16.0066 13.4491 16.0662 13.4378 16.1218 13.4155C16.1774 13.3931 16.2279 13.3601 16.2704 13.3184C16.3128 13.2767 16.3464 13.227 16.3692 13.1724C16.3919 13.1178 16.4034 13.0593 16.4029 13.0003C16.4023 12.9413 16.3899 12.8829 16.3661 12.8287C16.3424 12.7745 16.308 12.7254 16.2648 12.6844L14.6642 11.1111L16.2666 9.53778C16.349 9.45395 16.3946 9.34169 16.3935 9.22516C16.3925 9.10862 16.3449 8.99715 16.2611 8.91475C16.1772 8.83234 16.0637 8.7856 15.9451 8.78459C15.8265 8.78358 15.7122 8.82837 15.6269 8.90933L14.0245 10.4827L12.4229 8.90933C12.3381 8.82601 12.223 8.77921 12.1031 8.77921C11.9831 8.77921 11.8681 8.82601 11.7832 8.90933V8.91022ZM8.15948 10.6667H0.903807L0.797944 10.6729C0.568941 10.6996 0.358981 10.8113 0.210963 10.985C0.0629447 11.1588 -0.0119589 11.3815 0.0015563 11.6076C0.0150716 11.8338 0.115986 12.0464 0.283679 12.2019C0.451373 12.3574 0.67319 12.4442 0.903807 12.4444H8.29972C8.1599 11.8625 8.11259 11.2628 8.15948 10.6667ZM8.59378 8.88889H0.903807C0.67319 8.88864 0.451373 8.80189 0.283679 8.64636C0.115986 8.49083 0.0150716 8.27826 0.0015563 8.05209C-0.0119589 7.82592 0.0629447 7.60322 0.210963 7.42948C0.358981 7.25575 0.568941 7.14409 0.797944 7.11733L0.903807 7.11111H9.77999C9.27559 7.62633 8.87395 8.22916 8.59378 8.88889ZM0.903807 5.33333C0.67319 5.33308 0.451373 5.24633 0.283679 5.0908C0.115986 4.93527 0.0150716 4.72271 0.0015563 4.49654C-0.0119589 4.27037 0.0629447 4.04766 0.210963 3.87393C0.358981 3.70019 0.568941 3.58854 0.797944 3.56178L0.903807 3.55556H17.1904C17.421 3.55581 17.6428 3.64256 17.8105 3.79809C17.9782 3.95362 18.0791 4.16618 18.0926 4.39235C18.1061 4.61852 18.0312 4.84123 17.8832 5.01496C17.7352 5.1887 17.5252 5.30035 17.2962 5.32711L17.1904 5.33333H0.903807ZM17.1904 0H0.903807L0.797944 0.00622219C0.568941 0.032981 0.358981 0.144635 0.210963 0.318371C0.0629447 0.492107 -0.0119589 0.714812 0.0015563 0.940982C0.0150716 1.16715 0.115986 1.37972 0.283679 1.53525C0.451373 1.69077 0.67319 1.77753 0.903807 1.77778H17.1904L17.2962 1.77156C17.5252 1.7448 17.7352 1.63314 17.8832 1.45941C18.0312 1.28567 18.1061 1.06297 18.0926 0.836795C18.0791 0.610625 17.9782 0.39806 17.8105 0.242532C17.6428 0.0870035 17.421 0.000251296 17.1904 0Z" fill="#F5F5F5"/>
</svg>
