<svg width="14" height="18" viewBox="0 0 14 18" fill="none" xmlns="http://www.w3.org/2000/svg">
<path d="M5.10938 14.625L4.60938 15.75H0V0H12V10.3623L11 8.1123V1.125H1V14.625H5.10938ZM3 7.875H2V6.75H3V7.875ZM8.10938 7.875H4V6.75H8.60938L8.10938 7.875ZM2 10.125H3V11.25H2V10.125ZM4 10.125H7.10938L6.60938 11.25H4V10.125ZM3 4.5H2V3.375H3V4.5ZM10 4.5H4V3.375H10V4.5ZM10 12.375V15.1875H9V12.375H10ZM9 15.75H10V16.875H9V15.75ZM14 18H5L9.5 7.875L14 18ZM6.41406 17.0156H12.5859L9.5 10.0723L6.41406 17.0156Z" fill="#080C2F"/>
</svg>
