<svg width="18" height="18" viewBox="0 0 18 18" fill="none" xmlns="http://www.w3.org/2000/svg">
<path d="M17.469 8.622L9.369 0.522C9.03152 0.187272 8.57533 -0.000378742 8.1 5.73941e-07H1.8C1.32261 5.73941e-07 0.864773 0.189643 0.527208 0.527208C0.189642 0.864774 0 1.32261 0 1.8V8.1C0.00200951 8.57662 0.192971 9.03299 0.531 9.369L8.631 17.469C8.96702 17.807 9.42338 17.998 9.9 18C10.3766 17.998 10.833 17.807 11.169 17.469L17.469 11.169C17.807 10.833 17.998 10.3766 18 9.9C18.0002 9.66248 17.9534 9.42727 17.8622 9.20793C17.7711 8.98859 17.6375 8.78945 17.469 8.622ZM4.05 5.4C3.783 5.4 3.52199 5.32082 3.29998 5.17248C3.07797 5.02414 2.90494 4.8133 2.80276 4.56662C2.70058 4.31994 2.67385 4.0485 2.72594 3.78663C2.77803 3.52475 2.9066 3.28421 3.09541 3.09541C3.28421 2.90661 3.52475 2.77803 3.78663 2.72594C4.0485 2.67385 4.31994 2.70058 4.56662 2.80276C4.8133 2.90494 5.02414 3.07797 5.17248 3.29998C5.32082 3.52199 5.4 3.783 5.4 4.05C5.4 4.40804 5.25777 4.75142 5.00459 5.00459C4.75142 5.25777 4.40804 5.4 4.05 5.4ZM8.631 12.069L5.031 8.469L6.3 7.2L9.9 10.8M12.231 11.169L7.281 6.219L8.55 4.95L13.5 9.9L12.231 11.169Z" fill="#080C2F"/>
</svg>
