<svg width="20" height="21" viewBox="0 0 20 21" fill="none" xmlns="http://www.w3.org/2000/svg">
<path d="M1 1.58814C1 1.43215 1.06196 1.28256 1.17226 1.17226C1.28256 1.06196 1.43215 1 1.58814 1H18.0559C18.2119 1 18.3615 1.06196 18.4718 1.17226C18.5821 1.28256 18.6441 1.43215 18.6441 1.58814V15.1152C18.6441 15.1925 18.6288 15.269 18.5993 15.3403C18.5697 15.4117 18.5264 15.4765 18.4718 15.5311C18.4172 15.5857 18.3523 15.6291 18.281 15.6586C18.2096 15.6882 18.1332 15.7034 18.0559 15.7034H13.9978C13.9174 15.7033 13.8378 15.7196 13.7639 15.7515C13.6901 15.7834 13.6235 15.83 13.5684 15.8886L10.2504 19.4145C10.1954 19.473 10.129 19.5195 10.0554 19.5514C9.98169 19.5832 9.90228 19.5996 9.82203 19.5996C9.74177 19.5996 9.66237 19.5832 9.5887 19.5514C9.51503 19.5195 9.44866 19.473 9.39367 19.4145L6.07561 15.8886C6.02051 15.83 5.95399 15.7834 5.88014 15.7515C5.80629 15.7196 5.7267 15.7033 5.64627 15.7034H1.58814C1.43215 15.7034 1.28256 15.6414 1.17226 15.5311C1.06196 15.4208 1 15.2712 1 15.1152V1.58814Z" stroke="#080C2F" stroke-width="1.5"/>
<path d="M9.82205 4.9209L11.2189 7.44498L13.743 8.8418L11.2189 10.2386L9.82205 12.7627L8.42523 10.2386L5.90115 8.8418L8.42523 7.44498L9.82205 4.9209Z" stroke="#080C2F" stroke-width="1.5" stroke-linecap="round" stroke-linejoin="round"/>
</svg>
