<svg width="12" height="15" viewBox="0 0 12 15" fill="none" xmlns="http://www.w3.org/2000/svg">
<path d="M1.11111 10H5V8.88889H1.11111V5.55556H10V7.22222H11.1111V1.11111C11.1111 0.816426 10.994 0.533811 10.7857 0.325437C10.5773 0.117063 10.2947 0 10 0H1.11111C0.816426 0 0.533811 0.117063 0.325437 0.325437C0.117063 0.533811 0 0.816426 0 1.11111V13.3333C0 13.628 0.117063 13.9106 0.325437 14.119C0.533811 14.3274 0.816426 14.4444 1.11111 14.4444H5V13.3333H1.11111V10ZM1.11111 1.11111H10V4.44444H1.11111V1.11111Z" fill="#080C2F"/>
</svg>
