<svg width="20" height="20" viewBox="0 0 20 20" fill="none" xmlns="http://www.w3.org/2000/svg">
<path d="M6.42857 13.5714H5V12.1428C5.00057 11.5747 5.22651 11.03 5.62825 10.6282C6.03 10.2265 6.57471 10.0006 7.14286 9.99998H11.4286V11.4286H7.14286C6.95347 11.4287 6.7719 11.5041 6.63799 11.638C6.50408 11.7719 6.42876 11.9535 6.42857 12.1428V13.5714ZM9.28571 9.2857C8.72062 9.2857 8.16823 9.11813 7.69837 8.80418C7.22852 8.49024 6.86231 8.04401 6.64606 7.52194C6.42981 6.99986 6.37323 6.42539 6.48347 5.87115C6.59371 5.31692 6.86583 4.80783 7.26541 4.40825C7.66499 4.00867 8.17408 3.73656 8.72831 3.62631C9.28254 3.51607 9.85702 3.57265 10.3791 3.7889C10.9012 4.00515 11.3474 4.37136 11.6613 4.84121C11.9753 5.31107 12.1429 5.86347 12.1429 6.42856C12.1419 7.18603 11.8406 7.9122 11.305 8.44782C10.7694 8.98343 10.0432 9.28475 9.28571 9.2857ZM9.28571 4.99998C9.00317 4.99998 8.72697 5.08377 8.49204 5.24074C8.25712 5.39771 8.07401 5.62083 7.96589 5.88186C7.85776 6.1429 7.82947 6.43014 7.88459 6.70726C7.93971 6.98437 8.07577 7.23892 8.27556 7.43871C8.47535 7.6385 8.7299 7.77456 9.00701 7.82968C9.28413 7.8848 9.57137 7.85651 9.8324 7.74838C10.0934 7.64026 10.3166 7.45715 10.4735 7.22223C10.6305 6.9873 10.7143 6.7111 10.7143 6.42856C10.7139 6.04979 10.5633 5.68665 10.2954 5.41882C10.0276 5.15099 9.66448 5.00036 9.28571 4.99998ZM15.7143 14.2857C15.1492 14.2857 14.5968 14.1181 14.1269 13.8042C13.6571 13.4902 13.2909 13.044 13.0746 12.5219C12.8584 11.9999 12.8018 11.4254 12.912 10.8712C13.0223 10.3169 13.2944 9.80783 13.694 9.40825C14.0936 9.00867 14.6027 8.73655 15.1569 8.62631C15.7111 8.51607 16.2856 8.57265 16.8077 8.7889C17.3297 9.00515 17.776 9.37136 18.0899 9.84121C18.4039 10.3111 18.5714 10.8635 18.5714 11.4286C18.5705 12.186 18.2692 12.9122 17.7335 13.4478C17.1979 13.9834 16.4718 14.2848 15.7143 14.2857ZM15.7143 9.99998C15.4317 9.99998 15.1555 10.0838 14.9206 10.2407C14.6857 10.3977 14.5026 10.6208 14.3945 10.8819C14.2863 11.1429 14.258 11.4301 14.3132 11.7073C14.3683 11.9844 14.5043 12.2389 14.7041 12.4387C14.9039 12.6385 15.1585 12.7746 15.4356 12.8297C15.7127 12.8848 15.9999 12.8565 16.261 12.7484C16.522 12.6403 16.7451 12.4572 16.9021 12.2222C17.0591 11.9873 17.1429 11.7111 17.1429 11.4286C17.1425 11.0498 16.9918 10.6866 16.724 10.4188C16.4562 10.151 16.0931 10.0004 15.7143 9.99998ZM20 18.5714H18.5714V17.1428C18.5712 16.9535 18.4959 16.7719 18.362 16.638C18.2281 16.5041 18.0465 16.4287 17.8571 16.4286H13.5714C13.382 16.4287 13.2005 16.5041 13.0666 16.638C12.9326 16.7719 12.8573 16.9535 12.8571 17.1428V18.5714H11.4286V17.1428C11.4291 16.5747 11.6551 16.03 12.0568 15.6282C12.4586 15.2265 13.0033 15.0006 13.5714 15H17.8571C18.4253 15.0006 18.97 15.2265 19.3717 15.6282C19.7735 16.03 19.9994 16.5747 20 17.1428V18.5714Z" fill="#080C2F"/>
<path d="M8.57143 18.3807L4.83286 16.3879C3.80372 15.8404 2.94308 15.0231 2.34333 14.0235C1.74357 13.024 1.42734 11.88 1.42858 10.7143V1.42857H15.7143V5.71429H17.1429V1.42857C17.1425 1.04981 16.9919 0.686664 16.724 0.418837C16.4562 0.151009 16.0931 0.000378198 15.7143 0H1.42858C1.04981 0.000378198 0.686669 0.151009 0.418841 0.418837C0.151014 0.686664 0.000383096 1.04981 4.89844e-06 1.42857V10.7143C-0.0015869 12.1388 0.384805 13.5369 1.1177 14.7584C1.8506 15.98 2.90233 16.9789 4.16 17.6479L8.57143 20V18.3807Z" fill="#080C2F"/>
</svg>
