<svg width="22" height="20" viewBox="0 0 22 20" fill="none" xmlns="http://www.w3.org/2000/svg">
<path d="M14.3 20C14.8026 19.9965 15.2886 19.8182 15.6761 19.4949C16.0636 19.1717 16.329 18.7234 16.4274 18.2256L16.9554 15.5556H20.075C20.5855 15.5556 21.0752 15.3507 21.4362 14.986C21.7972 14.6214 22 14.1268 22 13.6111V6.95667C22 6.2925 21.7396 5.65535 21.2758 5.18457C20.812 4.71378 20.1825 4.44768 19.525 4.44444V4.44H13.75V2.5C13.75 1.83696 13.4892 1.20107 13.0251 0.732233C12.5609 0.263392 11.9314 0 11.275 0H2.475C1.81859 0 1.18906 0.263392 0.724911 0.732233C0.260758 1.20107 0 1.83696 0 2.5V16.3889C0 17.3466 0.376651 18.2651 1.04709 18.9423C1.71754 19.6195 2.62685 20 3.575 20H14.3ZM17.0742 6.46444L14.8093 17.8989C14.7838 18.0308 14.7105 18.1484 14.6038 18.2286C14.4971 18.3089 14.3645 18.3461 14.2321 18.3329C14.0997 18.3197 13.9769 18.2571 13.8877 18.1573C13.7986 18.0575 13.7495 17.9277 13.75 17.7933V6.10667H17.171C17.1301 6.22336 17.0977 6.34294 17.0742 6.46444ZM4.1558 6.11111C3.937 6.11111 3.72715 6.02331 3.57244 5.86703C3.41772 5.71075 3.3308 5.49879 3.3308 5.27778C3.3308 5.05676 3.41772 4.8448 3.57244 4.68852C3.72715 4.53224 3.937 4.44444 4.1558 4.44444C4.3746 4.44444 4.58445 4.53224 4.73916 4.68852C4.89388 4.8448 4.9808 5.05676 4.9808 5.27778C4.9808 5.49879 4.89388 5.71075 4.73916 5.86703C4.58445 6.02331 4.3746 6.11111 4.1558 6.11111ZM3.3341 14.1667C3.3341 13.9457 3.42102 13.7337 3.57574 13.5774C3.73045 13.4211 3.9403 13.3333 4.1591 13.3333H9.6591C9.8779 13.3333 10.0877 13.4211 10.2425 13.5774C10.3972 13.7337 10.4841 13.9457 10.4841 14.1667C10.4841 14.3877 10.3972 14.5996 10.2425 14.7559C10.0877 14.9122 9.8779 15 9.6591 15H4.1591C3.9403 15 3.73045 14.9122 3.57574 14.7559C3.42102 14.5996 3.3341 14.3877 3.3341 14.1667ZM4.1591 8.88889H9.6591C9.76744 8.88889 9.87472 8.91044 9.97481 8.95232C10.0749 8.9942 10.1659 9.05558 10.2425 9.13297C10.3191 9.21035 10.3798 9.30221 10.4213 9.40332C10.4628 9.50442 10.4841 9.61279 10.4841 9.72222C10.4841 9.83166 10.4628 9.94002 10.4213 10.0411C10.3798 10.1422 10.3191 10.2341 10.2425 10.3115C10.1659 10.3889 10.0749 10.4502 9.97481 10.4921C9.87472 10.534 9.76744 10.5556 9.6591 10.5556H4.1591C3.9403 10.5556 3.73045 10.4678 3.57574 10.3115C3.42102 10.1552 3.3341 9.94324 3.3341 9.72222C3.3341 9.50121 3.42102 9.28925 3.57574 9.13297C3.73045 8.97669 3.9403 8.88889 4.1591 8.88889Z" fill="white"/>
</svg>
