<svg id="svg" version="1.1" xmlns="http://www.w3.org/2000/svg" xmlns:xlink="http://www.w3.org/1999/xlink" width="400" height="400" viewBox="0, 0, 400,400"><g id="svgg"><path id="path0" d="M236.833 123.676 C 231.489 124.166,226.532 126.413,223.300 129.809 C 221.818 131.366,221.296 132.242,220.055 135.250 C 219.158 137.426,218.107 139.180,215.563 142.750 C 212.125 147.573,211.802 148.365,211.162 153.529 C 210.729 157.025,210.455 157.896,208.490 162.004 C 206.169 166.855,205.923 168.194,205.754 176.917 C 205.556 187.126,206.768 192.321,210.556 197.500 C 217.038 206.362,231.997 211.626,246.333 210.088 C 251.673 209.516,260.439 207.265,263.920 205.572 C 267.981 203.597,268.940 201.939,268.246 198.087 C 267.745 195.301,268.050 194.106,270.139 190.688 C 271.459 188.526,271.711 187.715,271.633 185.867 L 271.567 184.318 269.711 180.617 C 267.074 175.363,266.958 174.440,268.417 170.333 C 269.855 166.284,269.619 165.115,266.661 161.667 C 264.254 158.860,263.823 157.544,264.399 154.759 C 264.985 151.925,264.822 151.430,262.430 148.784 C 259.496 145.539,258.886 144.392,258.165 140.770 C 256.113 130.455,250.151 124.685,240.500 123.672 C 238.769 123.490,238.865 123.490,236.833 123.676 M186.417 126.725 C 185.487 127.033,184.191 127.707,182.292 128.870 C 179.262 130.726,178.550 130.884,173.333 130.851 C 165.112 130.799,162.301 132.258,160.897 137.307 C 160.649 138.200,160.533 138.364,159.826 138.822 C 157.588 140.272,156.905 143.625,157.651 149.498 C 157.933 151.719,158.000 153.160,158.000 157.021 C 158.000 164.066,158.708 166.834,161.400 170.304 C 163.086 172.478,163.103 172.485,167.667 172.836 C 168.996 172.938,171.133 173.180,172.417 173.374 C 179.404 174.429,184.833 173.425,187.054 170.666 C 189.558 167.556,190.477 164.847,190.673 160.000 C 190.852 155.568,191.116 151.818,191.423 149.360 C 191.564 148.229,191.679 146.452,191.679 145.411 C 191.679 143.714,191.711 143.508,191.989 143.420 C 193.692 142.880,195.196 139.392,195.191 135.998 C 195.181 129.519,191.075 125.179,186.417 126.725 M101.971 127.170 C 94.970 127.817,89.161 131.166,86.822 135.903 C 85.204 139.181,84.873 141.278,84.666 149.577 C 84.271 165.445,82.978 167.950,71.750 174.583 C 60.955 180.961,57.833 184.937,57.833 192.310 C 57.833 208.098,73.438 225.593,90.833 229.307 C 105.138 232.361,123.121 228.341,136.730 219.048 C 137.727 218.367,138.601 217.871,138.671 217.946 C 138.867 218.156,140.295 221.852,141.009 224.000 C 142.774 229.303,142.877 240.176,141.325 257.333 C 140.814 262.975,139.579 274.044,139.256 275.875 L 139.175 276.333 172.647 276.333 L 206.120 276.333 206.287 275.125 C 206.414 274.212,206.381 272.857,206.152 269.583 C 204.893 251.578,204.918 234.733,206.214 227.750 L 206.431 226.583 205.797 224.943 C 201.833 214.679,195.580 209.159,186.417 207.835 C 169.572 205.399,154.233 196.438,144.359 183.264 C 143.512 182.134,143.490 182.056,143.770 181.250 C 143.802 181.158,143.346 180.767,142.757 180.380 L 141.686 179.678 140.680 180.775 C 140.127 181.379,139.285 182.464,138.810 183.187 C 138.335 183.909,137.878 184.500,137.796 184.500 C 137.713 184.500,136.349 183.378,134.764 182.008 C 124.540 173.163,123.254 169.373,126.167 156.667 C 128.159 147.976,128.122 143.955,126.011 139.549 C 122.482 132.184,111.104 126.326,101.971 127.170 M299.750 129.425 C 290.927 131.064,284.564 140.858,286.058 150.503 C 286.250 151.742,286.348 153.775,286.394 157.500 C 286.479 164.313,286.851 165.872,289.277 169.597 C 291.212 172.568,305.489 173.792,313.743 171.694 C 315.575 171.228,317.580 168.236,318.618 164.417 L 319.071 162.750 319.108 155.583 C 319.128 151.642,319.235 147.360,319.347 146.069 C 320.194 136.254,317.328 131.365,309.667 129.561 C 308.066 129.185,301.529 129.095,299.750 129.425 M156.002 178.120 C 157.361 179.040,162.034 181.833,162.216 181.833 C 162.846 181.833,160.081 179.967,157.235 178.471 C 155.105 177.352,154.698 177.236,156.002 178.120 M190.831 181.905 C 188.035 182.222,187.358 182.404,186.072 183.187 C 182.804 185.177,177.857 186.828,175.140 186.836 C 173.549 186.840,173.691 187.082,175.614 187.640 C 181.453 189.335,185.558 189.530,190.507 188.346 C 194.218 187.458,200.880 186.500,203.345 186.500 C 204.544 186.500,204.483 186.276,202.976 185.159 C 199.273 182.413,195.428 181.383,190.831 181.905 " stroke="none" fill="#102346" fill-rule="evenodd"></path><path id="path1" d="M0.000 200.000 L 0.000 400.000 200.000 400.000 L 400.000 400.000 400.000 200.000 L 400.000 0.000 200.000 0.000 L 0.000 0.000 0.000 200.000 M243.083 123.999 C 251.615 125.865,256.464 131.443,258.416 141.639 C 258.927 144.305,259.766 145.777,262.424 148.667 C 264.891 151.348,265.050 151.812,264.487 154.667 C 264.099 156.632,264.140 157.597,264.661 158.776 C 264.973 159.481,265.428 160.086,267.635 162.725 C 269.604 165.081,269.776 166.758,268.431 170.500 C 267.480 173.146,267.324 174.951,267.898 176.667 C 268.132 177.366,270.824 182.811,271.101 183.146 C 271.129 183.180,271.611 182.792,272.173 182.284 C 275.198 179.546,277.427 179.171,285.500 180.041 C 290.234 180.552,293.052 180.807,293.144 180.733 C 293.221 180.671,294.330 175.005,294.331 174.667 C 294.332 174.529,294.014 174.214,293.625 173.966 C 290.582 172.027,287.689 167.952,286.870 164.452 C 286.606 163.323,286.497 163.111,286.040 162.833 C 285.070 162.243,283.134 157.500,283.111 155.657 C 283.090 153.902,284.103 152.538,285.659 152.226 C 286.182 152.122,286.194 152.099,286.100 151.434 C 285.448 146.843,286.140 142.530,288.179 138.476 C 291.500 131.870,296.320 129.003,304.107 129.000 C 315.180 128.997,320.404 134.287,319.494 144.583 C 319.396 145.683,319.274 147.829,319.221 149.350 L 319.125 152.117 319.771 152.223 C 321.654 152.532,322.742 154.306,322.353 156.436 C 321.960 158.586,320.116 162.573,319.355 162.917 C 319.152 163.008,318.948 163.271,318.902 163.500 C 318.107 167.425,315.543 171.381,312.333 173.635 C 311.737 174.054,311.222 174.416,311.188 174.440 C 311.111 174.496,312.505 181.886,312.615 182.000 C 312.659 182.046,314.845 182.090,317.472 182.097 C 320.100 182.105,322.475 182.161,322.750 182.223 C 323.178 182.319,323.334 182.249,323.833 181.733 C 327.021 178.438,333.500 180.858,333.500 185.344 C 333.500 185.754,333.695 186.395,334.007 187.013 L 334.513 188.017 333.942 189.092 L 333.371 190.168 335.144 191.395 C 351.131 202.467,360.993 219.741,359.849 234.667 C 358.730 249.266,349.880 261.740,334.408 270.526 L 333.132 271.250 333.226 272.083 C 333.379 273.450,333.553 276.332,333.482 276.351 C 332.593 276.597,139.167 276.441,139.167 276.195 C 139.167 276.030,139.280 275.038,139.418 273.989 C 142.033 254.189,143.002 234.632,141.737 227.167 C 141.503 225.785,139.874 220.667,139.669 220.667 C 139.532 220.667,138.432 223.653,137.929 225.392 C 136.011 232.010,135.899 253.144,137.671 274.234 C 137.763 275.325,137.801 276.255,137.755 276.301 C 137.709 276.347,122.510 276.409,103.979 276.440 L 70.286 276.495 70.397 275.303 C 70.458 274.648,70.548 273.949,70.598 273.751 C 70.678 273.432,70.385 273.221,68.053 271.921 C 57.959 266.296,51.480 260.825,47.009 254.155 C 35.342 236.746,38.575 216.413,55.778 199.015 L 58.152 196.614 57.973 195.280 C 56.789 186.484,59.838 181.635,70.583 175.228 C 82.877 167.899,84.121 165.724,84.500 150.917 C 84.827 138.159,86.106 134.268,91.085 130.889 C 99.074 125.467,110.030 125.950,119.446 132.139 C 127.437 137.391,129.181 143.835,126.173 156.989 C 123.228 169.871,124.727 173.639,136.780 183.653 L 137.809 184.509 138.816 183.038 C 139.370 182.230,140.230 181.119,140.726 180.570 L 141.629 179.572 141.171 179.059 C 139.539 177.233,141.489 173.493,144.546 172.585 C 147.150 171.812,149.546 172.679,151.261 175.015 C 151.698 175.610,151.968 175.837,152.177 175.782 C 152.345 175.739,152.819 175.954,153.278 176.282 C 153.721 176.599,154.871 177.230,155.833 177.684 C 158.354 178.873,161.767 180.965,162.278 181.635 C 162.787 182.302,167.342 184.619,170.899 186.020 L 173.081 186.879 174.749 186.782 C 178.336 186.573,182.513 185.225,185.917 183.176 C 190.441 180.454,198.185 181.398,203.302 185.296 C 204.507 186.214,204.769 186.345,205.302 186.301 L 205.917 186.250 205.833 185.000 C 205.787 184.313,205.758 180.862,205.767 177.333 C 205.792 168.140,205.969 167.133,208.499 161.833 C 210.403 157.844,210.610 157.182,211.086 153.535 C 211.768 148.311,212.139 147.398,215.429 142.833 C 218.099 139.129,219.161 137.324,220.259 134.630 C 223.552 126.545,233.514 121.905,243.083 123.999 M190.947 127.003 C 195.889 129.436,196.920 139.746,192.554 143.080 L 191.824 143.638 191.760 145.860 C 191.725 147.083,191.579 148.871,191.435 149.833 C 191.083 152.185,191.067 152.084,191.813 152.307 C 192.656 152.560,193.774 153.763,193.928 154.584 C 194.306 156.601,192.336 162.226,191.011 162.911 C 190.653 163.096,190.518 163.360,190.284 164.334 C 189.392 168.054,186.998 171.511,183.710 173.830 L 182.730 174.521 183.223 177.076 C 183.818 180.158,183.881 179.966,181.968 180.902 C 177.010 183.330,171.614 183.294,166.527 180.799 C 164.815 179.959,164.897 180.249,165.500 177.165 L 166.006 174.583 165.558 174.250 C 161.675 171.356,159.478 168.354,158.518 164.632 C 158.236 163.537,158.078 163.241,157.451 162.632 C 156.468 161.676,154.665 157.175,154.668 155.682 C 154.670 153.905,156.068 152.167,157.493 152.167 C 157.914 152.167,157.918 152.018,157.560 149.410 C 156.765 143.619,157.789 139.338,160.148 138.589 C 160.397 138.510,160.595 138.124,160.903 137.116 C 162.447 132.062,164.822 130.849,173.321 130.775 C 178.939 130.726,179.180 130.674,182.104 128.899 C 186.553 126.198,188.475 125.786,190.947 127.003 M64.682 214.792 C 54.427 227.147,55.047 240.105,66.371 250.116 C 68.593 252.081,72.342 254.719,72.573 254.481 C 72.916 254.124,73.568 238.971,73.434 234.469 C 73.239 227.916,72.926 226.207,70.945 220.874 L 69.692 217.499 68.291 215.948 C 67.521 215.095,66.714 214.158,66.497 213.865 C 65.980 213.166,66.069 213.121,64.682 214.792 M336.751 217.593 C 333.730 224.671,332.993 227.195,332.510 232.110 C 332.082 236.462,331.866 247.182,332.146 250.216 L 332.250 251.349 333.799 249.966 C 343.814 241.023,345.343 229.809,338.081 218.561 L 337.032 216.935 336.751 217.593 M270.686 227.625 C 269.402 231.666,269.247 233.599,269.262 245.417 C 269.274 254.331,269.788 268.273,270.093 267.961 C 270.271 267.780,271.600 253.606,272.028 247.333 C 272.311 243.179,272.317 231.584,272.037 229.500 C 271.501 225.504,271.403 225.368,270.686 227.625 M206.456 227.103 C 206.325 227.314,205.903 230.455,205.629 233.250 C 205.341 236.190,205.347 253.824,205.638 259.417 C 205.916 264.760,206.461 273.017,206.542 273.098 C 206.706 273.262,208.249 258.912,208.738 252.667 C 209.500 242.961,209.534 239.984,208.927 236.417 C 208.257 232.478,206.719 226.678,206.456 227.103 " stroke="none" fill="#fbfbfb" fill-rule="evenodd"></path><path id="path2" d="M170.875 130.782 C 171.035 130.823,171.298 130.823,171.458 130.782 C 171.619 130.740,171.487 130.705,171.167 130.705 C 170.846 130.705,170.715 130.740,170.875 130.782 M319.552 142.583 C 319.553 143.133,319.584 143.338,319.621 143.039 C 319.658 142.739,319.657 142.289,319.619 142.039 C 319.581 141.788,319.551 142.033,319.552 142.583 M157.218 145.417 C 157.219 145.967,157.250 146.172,157.287 145.872 C 157.325 145.572,157.324 145.122,157.286 144.872 C 157.248 144.622,157.217 144.867,157.218 145.417 M84.559 149.083 C 84.559 149.908,84.587 150.267,84.622 149.880 C 84.657 149.493,84.657 148.818,84.623 148.380 C 84.588 147.942,84.560 148.258,84.559 149.083 M286.198 151.938 C 286.181 152.041,285.932 152.172,285.644 152.230 C 284.103 152.538,283.090 153.909,283.111 155.657 C 283.136 157.615,285.098 162.283,286.155 162.899 C 286.544 163.126,286.678 163.155,286.573 162.991 C 286.489 162.859,286.377 160.275,286.324 157.250 C 286.272 154.225,286.215 151.834,286.198 151.938 M157.417 152.173 C 155.264 152.622,154.188 154.691,154.892 157.031 C 155.812 160.085,157.699 163.745,158.046 163.149 C 158.067 163.113,158.047 160.605,158.000 157.576 L 157.917 152.069 157.417 152.173 M191.104 152.688 C 191.047 152.974,191.000 153.655,191.000 154.201 C 191.000 154.747,190.926 155.881,190.835 156.722 C 190.744 157.562,190.650 159.349,190.627 160.691 L 190.583 163.132 191.017 162.908 C 192.334 162.226,194.305 156.596,193.929 154.589 C 193.792 153.861,192.806 152.709,192.047 152.391 C 191.296 152.077,191.222 152.100,191.104 152.688 M319.130 157.458 C 319.095 160.369,319.007 162.900,318.934 163.083 C 318.861 163.267,318.865 163.342,318.943 163.250 C 319.020 163.158,319.230 163.003,319.408 162.904 C 320.663 162.211,322.785 156.322,322.353 154.734 C 321.979 153.357,320.685 152.167,319.562 152.167 L 319.195 152.167 319.130 157.458 M79.240 169.375 L 78.750 169.917 79.292 169.427 C 79.797 168.971,79.910 168.833,79.781 168.833 C 79.752 168.833,79.509 169.077,79.240 169.375 M290.158 170.817 C 290.407 171.281,292.738 173.409,293.585 173.944 C 294.478 174.508,294.465 174.227,293.761 177.832 C 293.448 179.436,293.205 180.761,293.221 180.776 C 293.406 180.959,312.263 182.126,312.424 181.965 C 312.481 181.907,312.213 180.201,311.827 178.173 C 311.441 176.145,311.154 174.465,311.188 174.440 C 311.222 174.416,311.737 174.051,312.333 173.630 C 313.440 172.848,314.862 171.498,314.575 171.502 C 314.488 171.503,314.004 171.614,313.500 171.748 C 307.679 173.298,294.587 172.815,290.789 170.909 C 290.088 170.558,290.013 170.547,290.158 170.817 M163.417 172.581 C 163.692 172.815,164.391 173.353,164.971 173.777 C 165.815 174.394,166.007 174.617,165.939 174.898 C 165.273 177.641,164.985 179.911,165.277 180.128 C 169.313 183.127,176.724 183.470,181.968 180.902 C 183.881 179.965,183.818 180.158,183.222 177.072 L 182.728 174.513 183.572 173.925 C 184.037 173.601,184.717 173.078,185.083 172.761 L 185.750 172.187 184.667 172.575 C 181.278 173.791,177.023 174.069,172.417 173.375 C 171.133 173.182,169.446 172.977,168.667 172.919 C 166.059 172.727,163.760 172.464,163.336 172.308 C 162.938 172.163,162.942 172.177,163.417 172.581 M144.477 172.594 C 142.736 173.130,141.257 174.648,140.740 176.428 C 140.260 178.079,140.813 179.138,142.837 180.444 C 143.842 181.093,143.856 181.123,143.552 181.934 C 143.357 182.455,148.590 188.454,151.750 191.332 C 161.938 200.609,173.044 205.896,186.417 207.836 C 193.716 208.895,198.650 212.175,202.653 218.629 C 204.346 221.359,206.679 226.575,206.405 227.018 C 206.334 227.134,206.352 227.175,206.449 227.115 C 207.175 226.666,209.376 237.461,209.349 241.333 C 209.301 248.262,206.788 275.193,206.084 276.333 C 206.008 276.455,270.455 276.434,270.578 276.311 C 270.670 276.219,270.517 273.800,270.000 267.167 C 269.276 257.877,268.967 238.819,269.458 233.787 C 270.620 221.888,278.247 212.883,290.229 209.261 C 292.254 208.650,294.205 208.236,298.167 207.581 C 315.840 204.655,329.260 197.769,333.842 189.274 L 334.516 188.023 334.008 187.016 C 333.695 186.395,333.500 185.755,333.500 185.344 C 333.500 180.898,327.123 178.465,323.875 181.671 C 323.246 182.293,323.197 182.500,323.681 182.500 C 324.396 182.500,323.831 182.933,321.572 184.115 C 312.041 189.104,302.720 190.478,292.417 188.414 C 286.799 187.289,280.655 186.581,274.800 186.385 L 271.667 186.281 271.667 186.884 C 271.667 187.732,271.133 189.060,270.139 190.688 C 268.050 194.106,267.745 195.301,268.246 198.087 C 269.215 203.468,266.637 205.514,255.333 208.333 C 245.058 210.896,237.894 211.034,229.250 208.835 C 216.409 205.569,208.480 198.264,206.349 187.737 C 206.183 186.919,205.981 186.263,205.899 186.279 C 205.817 186.295,205.037 186.356,204.167 186.415 C 199.213 186.748,194.244 187.451,190.519 188.344 C 183.213 190.096,175.561 188.624,165.328 183.498 C 161.068 181.363,155.027 177.708,155.287 177.422 C 155.358 177.344,155.339 177.324,155.245 177.377 C 155.151 177.431,154.513 177.094,153.828 176.629 C 153.144 176.164,152.420 175.794,152.220 175.806 C 151.965 175.821,151.678 175.582,151.250 174.999 C 149.546 172.679,147.065 171.798,144.477 172.594 M205.728 175.167 C 205.728 176.129,205.756 176.523,205.790 176.042 C 205.823 175.560,205.823 174.773,205.790 174.292 C 205.756 173.810,205.728 174.204,205.728 175.167 M68.917 216.667 C 69.275 217.033,69.605 217.333,69.651 217.333 C 69.697 217.333,69.441 217.033,69.083 216.667 C 68.725 216.300,68.395 216.000,68.349 216.000 C 68.303 216.000,68.559 216.300,68.917 216.667 M136.372 249.000 C 136.372 249.321,136.406 249.452,136.448 249.292 C 136.490 249.131,136.490 248.869,136.448 248.708 C 136.406 248.548,136.372 248.679,136.372 249.000 M96.471 276.458 C 100.626 276.483,107.376 276.483,111.471 276.458 C 115.566 276.433,112.167 276.413,103.917 276.413 C 95.667 276.413,92.316 276.433,96.471 276.458 " stroke="none" fill="#eb6ba3" fill-rule="evenodd"></path><path id="path3" d="M192.000 127.719 C 192.000 127.748,192.244 127.991,192.542 128.260 L 193.083 128.750 192.594 128.208 C 192.138 127.703,192.000 127.590,192.000 127.719 M252.000 128.552 C 252.000 128.581,252.244 128.825,252.542 129.094 L 253.083 129.583 252.594 129.042 C 252.138 128.537,252.000 128.423,252.000 128.552 M223.491 129.458 L 222.917 130.083 223.542 129.509 C 224.123 128.974,224.243 128.833,224.116 128.833 C 224.088 128.833,223.807 129.115,223.491 129.458 M303.375 129.123 C 303.810 129.157,304.523 129.157,304.958 129.123 C 305.394 129.088,305.037 129.060,304.167 129.060 C 303.296 129.060,302.940 129.088,303.375 129.123 M174.958 130.951 C 175.165 130.991,175.502 130.991,175.708 130.951 C 175.915 130.911,175.746 130.879,175.333 130.879 C 174.921 130.879,174.752 130.911,174.958 130.951 M89.073 132.542 L 88.583 133.083 89.125 132.594 C 89.423 132.325,89.667 132.081,89.667 132.052 C 89.667 131.923,89.529 132.037,89.073 132.542 M84.558 151.833 C 84.558 152.612,84.587 152.931,84.622 152.542 C 84.657 152.152,84.657 151.515,84.622 151.125 C 84.587 150.735,84.558 151.054,84.558 151.833 M264.705 152.667 C 264.705 152.987,264.740 153.119,264.782 152.958 C 264.823 152.798,264.823 152.535,264.782 152.375 C 264.740 152.215,264.705 152.346,264.705 152.667 M124.717 165.833 C 124.717 166.337,124.748 166.544,124.786 166.292 C 124.824 166.040,124.824 165.627,124.786 165.375 C 124.748 165.123,124.717 165.329,124.717 165.833 M205.709 177.417 C 205.711 177.783,205.745 177.914,205.785 177.706 C 205.824 177.499,205.823 177.199,205.781 177.040 C 205.739 176.880,205.707 177.050,205.709 177.417 M277.500 179.605 C 275.702 179.948,273.609 181.002,272.154 182.297 L 271.083 183.250 271.368 184.083 C 271.524 184.542,271.655 185.224,271.659 185.599 L 271.667 186.281 274.800 186.385 C 280.655 186.581,286.799 187.289,292.417 188.414 C 301.283 190.191,308.591 189.522,317.167 186.150 C 319.343 185.294,323.854 183.021,323.950 182.732 C 324.097 182.293,322.229 182.128,316.528 182.079 C 311.078 182.032,306.959 181.836,299.000 181.244 C 293.677 180.848,288.041 180.350,284.667 179.976 C 281.542 179.630,278.260 179.460,277.500 179.605 M140.991 180.292 L 140.417 180.917 141.042 180.342 C 141.623 179.808,141.743 179.667,141.616 179.667 C 141.588 179.667,141.307 179.948,140.991 180.292 M62.324 181.125 L 61.750 181.750 62.375 181.176 C 62.957 180.641,63.077 180.500,62.949 180.500 C 62.922 180.500,62.640 180.781,62.324 181.125 M191.875 181.782 C 192.035 181.823,192.298 181.823,192.458 181.782 C 192.619 181.740,192.487 181.705,192.167 181.705 C 191.846 181.705,191.715 181.740,191.875 181.782 M332.574 191.300 C 327.079 198.865,314.306 204.909,298.167 207.581 C 287.592 209.331,282.082 211.825,276.896 217.209 C 274.029 220.185,271.134 225.082,271.500 226.333 C 272.840 230.910,272.500 245.493,270.641 263.167 C 270.087 268.434,270.082 270.326,270.610 275.348 L 270.708 276.279 282.062 276.389 C 296.588 276.531,315.553 276.530,325.647 276.389 L 333.544 276.278 333.432 274.597 C 333.370 273.673,333.277 272.542,333.226 272.083 L 333.132 271.250 334.408 270.526 C 349.880 261.740,358.730 249.266,359.849 234.667 C 360.994 219.727,351.045 202.333,335.068 191.340 L 333.386 190.183 332.574 191.300 M339.966 221.885 C 344.974 232.077,342.814 241.916,333.799 249.966 L 332.250 251.349 332.146 250.216 C 331.866 247.182,332.082 236.462,332.510 232.110 C 332.993 227.195,333.730 224.671,336.751 217.593 L 337.032 216.935 338.081 218.561 C 338.659 219.455,339.507 220.951,339.966 221.885 M142.209 231.583 C 142.211 231.950,142.245 232.080,142.285 231.873 C 142.324 231.666,142.323 231.366,142.281 231.206 C 142.239 231.047,142.207 231.217,142.209 231.583 M142.396 236.917 C 142.396 237.925,142.424 238.316,142.457 237.786 C 142.490 237.255,142.490 236.430,142.456 235.952 C 142.422 235.474,142.395 235.908,142.396 236.917 M205.381 236.250 C 205.382 236.708,205.415 236.876,205.453 236.623 C 205.491 236.369,205.490 235.994,205.451 235.789 C 205.411 235.584,205.380 235.792,205.381 236.250 M205.241 244.917 C 205.240 247.667,205.263 248.815,205.291 247.469 C 205.319 246.122,205.319 243.872,205.291 242.469 C 205.263 241.065,205.241 242.167,205.241 244.917 M142.218 243.250 C 142.219 243.800,142.250 244.005,142.287 243.705 C 142.325 243.406,142.324 242.956,142.286 242.705 C 142.248 242.455,142.217 242.700,142.218 243.250 M142.045 246.667 C 142.045 247.079,142.078 247.248,142.118 247.042 C 142.157 246.835,142.157 246.498,142.118 246.292 C 142.078 246.085,142.045 246.254,142.045 246.667 M141.705 251.833 C 141.705 252.154,141.740 252.285,141.782 252.125 C 141.823 251.965,141.823 251.702,141.782 251.542 C 141.740 251.381,141.705 251.512,141.705 251.833 M141.539 254.000 C 141.539 254.321,141.573 254.452,141.615 254.292 C 141.657 254.131,141.657 253.869,141.615 253.708 C 141.573 253.548,141.539 253.679,141.539 254.000 M205.388 254.750 C 205.389 255.392,205.419 255.634,205.455 255.288 C 205.491 254.942,205.490 254.417,205.454 254.121 C 205.417 253.825,205.387 254.108,205.388 254.750 M205.545 258.833 C 205.545 259.246,205.578 259.415,205.618 259.208 C 205.657 259.002,205.657 258.665,205.618 258.458 C 205.578 258.252,205.545 258.421,205.545 258.833 M205.712 262.500 C 205.712 262.912,205.745 263.081,205.784 262.875 C 205.824 262.669,205.824 262.331,205.784 262.125 C 205.745 261.919,205.712 262.087,205.712 262.500 M205.879 265.500 C 205.879 265.912,205.911 266.081,205.951 265.875 C 205.991 265.669,205.991 265.331,205.951 265.125 C 205.911 264.919,205.879 265.087,205.879 265.500 M206.042 268.083 C 206.044 268.450,206.078 268.580,206.118 268.373 C 206.158 268.166,206.156 267.866,206.115 267.706 C 206.073 267.547,206.040 267.717,206.042 268.083 M206.372 272.833 C 206.372 273.154,206.406 273.285,206.448 273.125 C 206.490 272.965,206.490 272.702,206.448 272.542 C 206.406 272.381,206.372 272.512,206.372 272.833 M155.888 276.458 C 165.131 276.482,180.206 276.482,189.388 276.458 C 198.571 276.435,191.008 276.415,172.583 276.415 C 154.158 276.415,146.646 276.435,155.888 276.458 " stroke="none" fill="#2c9ccc" fill-rule="evenodd"></path><path id="path4" d="M55.530 199.253 C 42.511 212.540,37.407 228.022,41.427 242.029 C 45.099 254.826,53.119 263.731,68.638 272.244 C 70.431 273.227,70.682 273.417,70.605 273.727 C 70.556 273.923,70.466 274.580,70.404 275.187 L 70.292 276.291 74.354 276.363 C 76.589 276.403,91.792 276.403,108.139 276.363 L 137.861 276.290 137.762 275.353 C 136.858 266.832,136.158 247.010,136.475 238.905 C 136.841 229.541,137.248 226.860,139.013 222.174 L 139.673 220.424 139.229 219.207 C 138.653 217.628,138.796 217.637,136.718 219.056 C 130.690 223.172,122.617 226.729,115.089 228.585 C 98.082 232.777,82.983 229.527,71.667 219.239 C 70.027 217.748,69.593 217.381,69.708 217.584 C 69.988 218.080,72.248 224.435,72.522 225.500 C 73.338 228.671,73.658 235.295,73.349 242.667 C 73.153 247.352,72.695 254.361,72.577 254.479 C 72.332 254.724,68.381 251.931,66.167 249.948 C 57.150 241.873,55.018 231.985,60.092 221.781 C 61.434 219.085,62.743 217.161,65.617 213.664 L 65.984 213.218 64.890 211.734 C 62.002 207.818,59.893 203.476,58.763 199.119 C 58.459 197.947,58.158 196.936,58.094 196.872 C 58.030 196.808,56.876 197.879,55.530 199.253 " stroke="none" fill="#fbb03b" fill-rule="evenodd"></path></g></svg>