<svg width="10" height="10" viewBox="0 0 10 10" fill="none" xmlns="http://www.w3.org/2000/svg">
<path d="M4 3C5.10457 3 6 2.32843 6 1.5C6 0.671573 5.10457 0 4 0C2.89543 0 2 0.671573 2 1.5C2 2.32843 2.89543 3 4 3Z" fill="white"/>
<path d="M3.95075 9C3.86034 8.90737 3.80134 8.78688 3.78259 8.6566C3.76385 8.52631 3.78637 8.39324 3.84679 8.27733L3.99179 7.99393L3.69357 7.90041C3.57196 7.86098 3.46609 7.78153 3.39202 7.67413C3.31795 7.56672 3.27974 7.43721 3.28317 7.30527V6.7243C3.28294 6.59293 3.32352 6.46497 3.3989 6.35933C3.47428 6.25369 3.58047 6.17597 3.70178 6.13766L4 6.04414L3.85773 5.76074C3.79909 5.64641 3.77677 5.51582 3.79397 5.38759C3.81116 5.25936 3.86699 5.14002 3.95349 5.04657C3.743 5.01799 3.53102 5.00284 3.31874 5.00122C2.69174 4.98593 2.06921 5.11415 1.49555 5.37672C0.92189 5.63929 0.411232 6.02975 0 6.52025V8.7166C0 8.79176 0.0288254 8.86385 0.0801349 8.91699C0.131444 8.97014 0.201035 9 0.273598 9H3.95075Z" fill="white"/>
<path d="M9.93385 6.53935L9.27306 6.34122C9.22728 6.17813 9.16298 6.02081 9.08144 5.87232L9.41183 5.25812C9.4246 5.23532 9.42926 5.20888 9.42506 5.18309C9.42086 5.1573 9.40804 5.1337 9.3887 5.11613L8.90963 4.63402C8.89118 4.61607 8.86765 4.60422 8.84224 4.60009C8.81683 4.59595 8.79076 4.59973 8.76756 4.6109L8.15634 4.94112C8.00588 4.85943 7.8476 4.79305 7.68388 4.74299L7.48234 4.08256C7.47347 4.05821 7.45727 4.0372 7.43598 4.02241C7.41468 4.00763 7.38933 3.9998 7.3634 4H6.67618C6.65042 4.00072 6.62551 4.00935 6.60482 4.02471C6.58413 4.04007 6.56867 4.06142 6.56054 4.08586L6.36231 4.74629C6.19541 4.79482 6.03466 4.86241 5.88324 4.94772L5.28523 4.6175C5.26198 4.60515 5.23544 4.60042 5.20935 4.60398C5.18326 4.60753 5.15895 4.6192 5.13986 4.63732L4.65418 5.11283C4.63506 5.13125 4.62246 5.15539 4.61829 5.1816C4.61411 5.20782 4.6186 5.23468 4.63106 5.25812L4.96145 5.85911C4.87294 6.00826 4.80093 6.1666 4.74669 6.33132L4.08591 6.53275C4.06091 6.53997 4.03898 6.55519 4.02346 6.57606C4.00795 6.59694 3.99971 6.62232 4.00001 6.64832V7.32526C3.99971 7.35127 4.00795 7.37665 4.02346 7.39753C4.03898 7.4184 4.06091 7.43362 4.08591 7.44084L4.74669 7.64227C4.79622 7.804 4.86267 7.96006 4.94493 8.10787L4.61454 8.73528C4.60208 8.75872 4.59759 8.78558 4.60177 8.8118C4.60594 8.83801 4.61854 8.86215 4.63766 8.88057L5.12995 9.35938C5.14904 9.3775 5.17335 9.38917 5.19944 9.39272C5.22553 9.39628 5.25207 9.39155 5.27532 9.3792L5.89315 9.04898C6.04018 9.12802 6.19525 9.19112 6.3557 9.23721L6.55394 9.91414C6.56225 9.93911 6.57821 9.96084 6.59955 9.97624C6.6209 9.99165 6.64655 9.99996 6.67288 10H7.35018C7.37594 9.99928 7.40086 9.99066 7.42155 9.9753C7.44223 9.95994 7.45769 9.93859 7.46582 9.91414L7.66405 9.23721C7.82259 9.19169 7.97553 9.12856 8.11999 9.04898L8.74444 9.3792C8.76769 9.39155 8.79423 9.39628 8.82032 9.39272C8.84641 9.38917 8.87072 9.3775 8.88981 9.35938L9.37218 8.88057C9.39031 8.86149 9.40198 8.83719 9.40554 8.81112C9.40909 8.78505 9.40436 8.75852 9.392 8.73528L9.06161 8.11448C9.14065 7.96981 9.20379 7.81702 9.24993 7.65878L9.91072 7.45735C9.93554 7.44937 9.95736 7.43405 9.97329 7.41341C9.98921 7.39278 9.9985 7.3678 9.99993 7.34177V6.65823C10.0007 6.63429 9.99501 6.61058 9.98337 6.58964C9.97173 6.5687 9.95461 6.55132 9.93385 6.53935ZM7.01649 8.09797C6.79809 8.09862 6.58442 8.03449 6.40251 7.9137C6.22061 7.79291 6.07865 7.62088 5.99462 7.41941C5.9106 7.21794 5.88827 6.99607 5.93048 6.78191C5.97268 6.56775 6.07752 6.37092 6.23171 6.21634C6.38591 6.06177 6.58253 5.9564 6.79668 5.91357C7.01083 5.87075 7.23288 5.8924 7.43471 5.97578C7.63654 6.05915 7.80908 6.20052 7.93048 6.38196C8.05189 6.5634 8.11669 6.77677 8.11669 6.99505C8.11669 7.28699 8.00088 7.56702 7.79465 7.77376C7.58842 7.98051 7.30858 8.09709 7.01649 8.09797Z" fill="white"/>
</svg>
