<svg width="8" height="8" viewBox="0 0 8 8" fill="none" xmlns="http://www.w3.org/2000/svg">
<path d="M5.41667 3.33333V2.08333H4.16667V1.25H5.41667V0H6.25V1.25H7.5V2.08333H6.25V3.33333H5.41667ZM7.0625 7.5C6.16667 7.5 5.29347 7.30028 4.44292 6.90083C3.59208 6.50167 2.83861 5.97389 2.1825 5.3175C1.52611 4.66139 0.998333 3.90792 0.599167 3.05708C0.199722 2.20653 0 1.33333 0 0.4375C0 0.3125 0.0416666 0.208333 0.125 0.125C0.208333 0.0416666 0.3125 0 0.4375 0H2.125C2.22222 0 2.30903 0.03125 2.38542 0.09375C2.46181 0.15625 2.50694 0.236111 2.52083 0.333333L2.79167 1.79167C2.80556 1.88889 2.80389 1.97736 2.78667 2.05708C2.76917 2.13708 2.72917 2.20833 2.66667 2.27083L1.66667 3.29167C1.95833 3.79167 2.32292 4.26042 2.76042 4.69792C3.19792 5.13542 3.68056 5.51389 4.20833 5.83333L5.1875 4.85417C5.25 4.79167 5.33167 4.74472 5.4325 4.71333C5.53306 4.68222 5.63194 4.67361 5.72917 4.6875L7.16667 4.97917C7.26389 5 7.34375 5.04681 7.40625 5.11958C7.46875 5.19264 7.5 5.27778 7.5 5.375V7.0625C7.5 7.1875 7.45833 7.29167 7.375 7.375C7.29167 7.45833 7.1875 7.5 7.0625 7.5Z" fill="white"/>
</svg>
