<svg width="16" height="16" viewBox="0 0 16 16" fill="none" xmlns="http://www.w3.org/2000/svg">
<path fill-rule="evenodd" clip-rule="evenodd" d="M4.47023 1.56105C4.53843 1.49286 4.63092 1.45455 4.72736 1.45455H14.1819C14.2783 1.45455 14.3708 1.49286 14.439 1.56105C14.5072 1.62925 14.5455 1.72174 14.5455 1.81818V11.2727C14.5455 11.3692 14.5072 11.4617 14.439 11.5299C14.3708 11.5981 14.2783 11.6364 14.1819 11.6364H13.8182V3.99999C13.8182 2.99583 13.0042 2.1818 12 2.1818H4.36373V1.81818C4.36373 1.72174 4.40204 1.62925 4.47023 1.56105ZM2.90918 2.1818V1.81818C2.90918 1.33597 3.10074 0.873509 3.44171 0.532533C3.78269 0.191558 4.24515 0 4.72736 0H14.1819C14.6641 0 15.1266 0.191558 15.4676 0.532533C15.8085 0.873508 16.0001 1.33597 16.0001 1.81818V11.2727C16.0001 11.7549 15.8085 12.2174 15.4676 12.5584C15.1266 12.8994 14.6641 13.0909 14.1819 13.0909H13.8182V14.1818C13.8182 15.186 13.0042 16 12 16H1.81818C0.814028 16 0 15.186 0 14.1818V3.99999C0 2.99583 0.814028 2.1818 1.81818 2.1818H2.90918ZM1.45455 3.99999C1.45455 3.79915 1.61735 3.63635 1.81818 3.63635H12C12.2008 3.63635 12.3636 3.79915 12.3636 3.99999V14.1818C12.3636 14.3826 12.2008 14.5454 12 14.5454H1.81818C1.61735 14.5454 1.45455 14.3826 1.45455 14.1818V3.99999ZM5.34005 7.32723C5.21651 7.48902 5.11733 7.66863 5.04613 7.86039C4.94349 8.13685 4.9014 8.43211 4.9227 8.72623C4.95876 9.24129 5.18051 9.7258 5.54681 10.0897C5.83174 10.3728 6.29222 10.3714 6.57532 10.0864C6.85842 9.80149 6.85694 9.34101 6.57201 9.05791C6.45552 8.94217 6.38503 8.78805 6.37367 8.62422L6.37347 8.62154C6.36715 8.53496 6.37951 8.44804 6.40972 8.36667C6.43994 8.28529 6.48729 8.21136 6.54858 8.14989C6.58413 8.11425 6.61521 8.07584 6.64182 8.03536L8.42104 6.18284C8.65259 5.95596 9.05637 5.94354 9.32581 6.21315C9.59713 6.48448 9.58262 6.89145 9.35199 7.12209L9.33743 7.13707L8.64289 7.87271C8.36714 8.16476 8.38037 8.62506 8.67243 8.9008C8.96448 9.17654 9.42478 9.16332 9.70052 8.87126L10.3887 8.14242C11.2048 7.31725 11.1647 5.99517 10.3545 5.18481C9.54119 4.37096 8.21278 4.33403 7.38835 5.15845L7.37808 5.16893L5.45372 7.17257C5.40811 7.22005 5.37023 7.27212 5.34005 7.32723ZM4.68378 9.21191C4.9678 9.49592 4.9678 9.95641 4.68378 10.2404C4.58716 10.3371 4.44164 10.4793 4.32268 10.5951L4.16945 10.7439L4.1112 10.8003C3.86603 11.0495 3.86197 11.5265 4.11469 11.7792C4.38565 12.0501 4.79263 12.036 5.02363 11.805C5.0319 11.7967 5.04038 11.7886 5.04904 11.7808L6.9118 10.0897C7.13268 9.8569 7.1424 9.45806 6.87533 9.19099C6.59131 8.90698 6.59131 8.44649 6.87533 8.16247C7.15935 7.87846 7.61983 7.87846 7.90385 8.16247C8.71699 8.97562 8.75451 10.3038 7.93021 11.1286C7.91912 11.1397 7.90777 11.1504 7.89617 11.1606L6.03836 12.8472C5.21241 13.6581 3.89434 13.6159 3.08617 12.8077C2.25494 11.9765 2.27879 10.5751 3.08635 9.76809L3.09492 9.75967L3.15709 9.69946L3.30818 9.55272C3.42741 9.43668 3.56643 9.30074 3.65526 9.21191C3.93928 8.92789 4.39976 8.92789 4.68378 9.21191Z" fill="#080C2F"/>
</svg>
