<svg width="11" height="12" viewBox="0 0 11 12" fill="none" xmlns="http://www.w3.org/2000/svg">
<path d="M9.9 5.51455V2.18182C9.9 1.89249 9.78411 1.61501 9.57782 1.41043C9.37153 1.20584 9.09174 1.09091 8.8 1.09091H6.501C6.27 0.458182 5.665 0 4.95 0C4.235 0 3.63 0.458182 3.399 1.09091H1.1C0.495 1.09091 0 1.58182 0 2.18182V9.81818C0 10.1075 0.115892 10.385 0.322183 10.5896C0.528472 10.7942 0.808262 10.9091 1.1 10.9091H4.4605C5.1535 11.5855 6.0995 12 7.15 12C9.2785 12 11 10.2927 11 8.18182C11 7.14 10.582 6.20182 9.9 5.51455ZM4.95 1.09091C5.2525 1.09091 5.5 1.33636 5.5 1.63636C5.5 1.93636 5.2525 2.18182 4.95 2.18182C4.6475 2.18182 4.4 1.93636 4.4 1.63636C4.4 1.33636 4.6475 1.09091 4.95 1.09091ZM1.65 3.27273H8.25V4.36364H1.65V3.27273ZM3.344 8.72727H1.65V7.63636H3.344C3.3165 7.81636 3.3 7.99636 3.3 8.18182C3.3 8.36727 3.3165 8.54727 3.344 8.72727ZM1.65 6.54545V5.45455H4.4605C4.125 5.76545 3.872 6.13636 3.674 6.54545H1.65ZM7.15 10.9091C5.632 10.9091 4.4 9.68727 4.4 8.18182C4.4 6.67636 5.632 5.45455 7.15 5.45455C8.668 5.45455 9.9 6.67636 9.9 8.18182C9.9 9.68727 8.668 10.9091 7.15 10.9091ZM7.425 8.31818L8.998 9.24L8.5855 9.90545L6.6 8.72727V6H7.425V8.31818Z" fill="white"/>
</svg>
