<svg width="14" height="14" viewBox="0 0 14 14" fill="none" xmlns="http://www.w3.org/2000/svg">
<path d="M4.2 9.1H5.6V7H8.05V8.75L10.5 6.3L8.05 3.85V5.6H4.9C4.70167 5.6 4.53553 5.66697 4.4016 5.8009C4.2672 5.9353 4.2 6.10167 4.2 6.3V9.1ZM7 14C6.825 14 6.6528 13.965 6.4834 13.895C6.31447 13.825 6.16 13.72 6.02 13.58L0.42 7.98C0.28 7.84 0.175 7.68553 0.105 7.5166C0.0350001 7.3472 0 7.175 0 7C0 6.825 0.0350001 6.6528 0.105 6.4834C0.175 6.31447 0.28 6.16 0.42 6.02L6.02 0.42C6.16 0.28 6.31447 0.175 6.4834 0.105C6.6528 0.0350001 6.825 0 7 0C7.175 0 7.3472 0.0350001 7.5166 0.105C7.68553 0.175 7.84 0.28 7.98 0.42L13.58 6.02C13.72 6.16 13.825 6.31447 13.895 6.4834C13.965 6.6528 14 6.825 14 7C14 7.175 13.965 7.3472 13.895 7.5166C13.825 7.68553 13.72 7.84 13.58 7.98L7.98 13.58C7.84 13.72 7.68553 13.825 7.5166 13.895C7.3472 13.965 7.175 14 7 14Z" fill="white"/>
</svg>
