<svg width="14" height="14" viewBox="0 0 14 14" fill="none" xmlns="http://www.w3.org/2000/svg">
<path d="M7 14C6.03167 14 5.12167 13.8161 4.27 13.4484C3.41833 13.0811 2.6775 12.5825 2.0475 11.9525C1.4175 11.3225 0.918867 10.5817 0.5516 9.73C0.183867 8.87833 0 7.96833 0 7C0 6.03167 0.183867 5.12167 0.5516 4.27C0.918867 3.41833 1.4175 2.6775 2.0475 2.0475C2.6775 1.4175 3.41833 0.918633 4.27 0.5509C5.12167 0.183633 6.03167 0 7 0C7.96833 0 8.87833 0.183633 9.73 0.5509C10.5817 0.918633 11.3225 1.4175 11.9525 2.0475C12.5825 2.6775 13.0811 3.41833 13.4484 4.27C13.8161 5.12167 14 6.03167 14 7C14 7.96833 13.8161 8.87833 13.4484 9.73C13.0811 10.5817 12.5825 11.3225 11.9525 11.9525C11.3225 12.5825 10.5817 13.0811 9.73 13.4484C8.87833 13.8161 7.96833 14 7 14ZM6.3 12.565V11.2C5.915 11.2 5.58553 11.063 5.3116 10.7891C5.0372 10.5147 4.9 10.185 4.9 9.8V9.1L1.54 5.74C1.505 5.95 1.4728 6.16 1.4434 6.37C1.41447 6.58 1.4 6.79 1.4 7C1.4 8.41167 1.86387 9.64833 2.7916 10.71C3.71887 11.7717 4.88833 12.39 6.3 12.565ZM11.13 10.78C11.3633 10.5233 11.5733 10.2461 11.76 9.9484C11.9467 9.65113 12.1014 9.34197 12.2241 9.0209C12.3464 8.7003 12.4397 8.37083 12.5041 8.0325C12.568 7.69417 12.6 7.35 12.6 7C12.6 5.85667 12.2822 4.8125 11.6466 3.8675C11.0105 2.9225 10.1617 2.24 9.1 1.82V2.1C9.1 2.485 8.96303 2.81447 8.6891 3.0884C8.4147 3.3628 8.085 3.5 7.7 3.5H6.3V4.9C6.3 5.09833 6.23303 5.26447 6.0991 5.3984C5.9647 5.5328 5.79833 5.6 5.6 5.6H4.2V7H8.4C8.59833 7 8.7647 7.06697 8.8991 7.2009C9.03303 7.3353 9.1 7.50167 9.1 7.7V9.8H9.8C10.1033 9.8 10.3775 9.8903 10.6225 10.0709C10.8675 10.252 11.0367 10.4883 11.13 10.78Z" fill="#080C2F"/>
</svg>
