<svg width="23" height="20" viewBox="0 0 23 20" fill="none" xmlns="http://www.w3.org/2000/svg">
<path d="M6.89 8C4.39 8 2.39 10 2.39 12.5C2.39 13.38 2.64 14.21 3.08 14.9L0 18L1.39 19.39L4.51 16.32C5.2 16.75 6.02 17 6.89 17C9.39 17 11.39 15 11.39 12.5C11.39 10 9.39 8 6.89 8ZM6.89 15C6.22696 15 5.59107 14.7366 5.12223 14.2678C4.65339 13.7989 4.39 13.163 4.39 12.5C4.39 11.837 4.65339 11.2011 5.12223 10.7322C5.59107 10.2634 6.22696 10 6.89 10C7.55304 10 8.18893 10.2634 8.65777 10.7322C9.12661 11.2011 9.39 11.837 9.39 12.5C9.39 13.163 9.12661 13.7989 8.65777 14.2678C8.18893 14.7366 7.55304 15 6.89 15ZM22.39 2V16C22.39 17.11 21.5 18 20.39 18H10.34C11.15 17.5 11.84 16.81 12.36 16H20.39V6H12.39V2H2.39V7.82C1.16 9 0.39 10.66 0.39 12.5V2C0.39 0.9 1.29 0 2.39 0H20.39C20.9204 0 21.4291 0.210714 21.8042 0.585786C22.1793 0.960859 22.39 1.46957 22.39 2Z" fill="#080C2F"/>
</svg>
