<svg width="5" height="7" viewBox="0 0 5 7" fill="none" xmlns="http://www.w3.org/2000/svg">
<path d="M2.4009 4.23325V6.42375H9.28166e-09C-2.82293e-05 6.11053 0.0643787 5.80089 0.188942 5.51539C0.313505 5.2299 0.495372 4.9751 0.722461 4.76791C0.94955 4.56072 1.21666 4.40589 1.50605 4.31371C1.79544 4.22153 2.10047 4.1941 2.4009 4.23325ZM2.13413 3.94019C1.2498 3.94019 0.533533 3.19927 0.533533 2.28449C0.533533 1.36971 1.2498 0.628784 2.13413 0.628784C3.01846 0.628784 3.73473 1.36971 3.73473 2.28449C3.73473 3.19927 3.01846 3.94019 2.13413 3.94019ZM3.67951 5.84812L4.62253 4.87263L5 5.26283L3.67951 6.62878L2.73622 5.65302L3.1137 5.26283L3.67951 5.84812Z" fill="white"/>
</svg>
