<svg width="12" height="13" viewBox="0 0 12 13" fill="none" xmlns="http://www.w3.org/2000/svg">
<path d="M6 12.6288C5.17 12.6288 4.39 12.4712 3.66 12.156C2.93 11.8412 2.295 11.4138 1.755 10.8738C1.215 10.3338 0.7876 9.69878 0.4728 8.96878C0.1576 8.23878 0 7.45878 0 6.62878C0 5.79878 0.1576 5.01878 0.4728 4.28878C0.7876 3.55878 1.215 2.92378 1.755 2.38378C2.295 1.84378 2.93 1.41618 3.66 1.10098C4.39 0.786184 5.17 0.628784 6 0.628784C6.83 0.628784 7.61 0.786184 8.34 1.10098C9.07 1.41618 9.705 1.84378 10.245 2.38378C10.785 2.92378 11.2124 3.55878 11.5272 4.28878C11.8424 5.01878 12 5.79878 12 6.62878C12 7.45878 11.8424 8.23878 11.5272 8.96878C11.2124 9.69878 10.785 10.3338 10.245 10.8738C9.705 11.4138 9.07 11.8412 8.34 12.156C7.61 12.4712 6.83 12.6288 6 12.6288ZM5.4 11.3988V10.2288C5.07 10.2288 4.7876 10.1114 4.5528 9.87659C4.3176 9.64139 4.2 9.35878 4.2 9.02878V8.42878L1.32 5.54878C1.29 5.72878 1.2624 5.90878 1.2372 6.08878C1.2124 6.26878 1.2 6.44878 1.2 6.62878C1.2 7.83878 1.5976 8.89878 2.3928 9.80878C3.1876 10.7188 4.19 11.2488 5.4 11.3988ZM9.54 9.86878C9.74 9.64878 9.92 9.41118 10.08 9.15598C10.24 8.90118 10.3726 8.63618 10.4778 8.36098C10.5826 8.08618 10.6626 7.80378 10.7178 7.51378C10.7726 7.22378 10.8 6.92878 10.8 6.62878C10.8 5.64878 10.5276 4.75378 9.9828 3.94378C9.4376 3.13378 8.71 2.54878 7.8 2.18878V2.42878C7.8 2.75878 7.6826 3.04118 7.4478 3.27598C7.2126 3.51118 6.93 3.62878 6.6 3.62878H5.4V4.82878C5.4 4.99878 5.3426 5.14118 5.2278 5.25598C5.1126 5.37118 4.97 5.42878 4.8 5.42878H3.6V6.62878H7.2C7.37 6.62878 7.5126 6.68618 7.6278 6.80098C7.7426 6.91618 7.8 7.05878 7.8 7.22878V9.02878H8.4C8.66 9.02878 8.895 9.10618 9.105 9.26098C9.315 9.41618 9.46 9.61878 9.54 9.86878Z" fill="#080C2F"/>
</svg>
