<svg width="26" height="25" viewBox="0 0 26 25" fill="none" xmlns="http://www.w3.org/2000/svg">
<path d="M26.0001 12.7193C26.0001 11.0743 24.6684 10.2126 22.8668 10.2126H17.6184C18.01 8.80258 18.1667 7.4709 18.1667 6.29589C18.1667 1.75251 16.9134 0.8125 15.8167 0.8125C15.1117 0.8125 14.5633 0.890834 13.8583 1.2825C13.6233 1.43917 13.545 1.59584 13.4667 1.83084L12.6833 6.06088C11.8216 8.25424 9.70663 10.2126 7.98328 11.5443V22.746C8.60995 22.746 9.23662 23.0594 10.02 23.4511C10.8816 23.8427 11.7433 24.3127 12.6833 24.3127H20.1251C21.6917 24.3127 22.8668 23.0594 22.8668 21.9627C22.8668 21.7277 22.8668 21.571 22.7884 21.4144C23.7284 21.0227 24.4334 20.2394 24.4334 19.221C24.4334 18.751 24.3551 18.3593 24.1984 17.9677C24.8251 17.576 25.3734 16.871 25.3734 16.0876C25.3734 15.6176 25.1384 15.1476 24.9034 14.756C25.5301 14.286 26.0001 13.5026 26.0001 12.7193ZM24.3551 12.7193C24.3551 13.7376 23.3368 13.816 23.1801 14.286C23.0234 14.8343 23.8068 14.991 23.8068 15.931C23.8068 16.871 22.6318 16.871 22.4751 17.4193C22.3184 18.046 22.8668 18.2027 22.8668 19.1427V19.2993C22.7101 20.0827 21.5351 20.161 21.3001 20.4744C21.0651 20.866 21.3001 21.0227 21.3001 21.8844C21.3001 22.3544 20.7517 22.6677 20.1251 22.6677H12.6833C12.0566 22.6677 11.43 22.3544 10.6466 21.9627C10.02 21.6494 9.39329 21.336 8.76662 21.1794V12.9543C10.725 11.4659 13.2317 9.27258 14.1717 6.53089V6.37422L14.8767 2.45752C15.19 2.37918 15.425 2.37918 15.8167 2.37918C15.9734 2.37918 16.6 3.31919 16.6 6.29589C16.6 7.4709 16.365 8.72424 15.9734 10.2126H15.8167C15.3467 10.2126 15.0333 10.5259 15.0333 10.9959C15.0333 11.4659 15.3467 11.7793 15.8167 11.7793H22.8668C23.6501 11.7793 24.3551 12.1709 24.3551 12.7193Z" fill="#080C2F"/>
<path d="M7.19983 24.3128H2.49979C1.63811 24.3128 0.933105 23.6078 0.933105 22.7461V11.7793C0.933105 10.9177 1.63811 10.2126 2.49979 10.2126H7.19983C8.06151 10.2126 8.76651 10.9177 8.76651 11.7793V22.7461C8.76651 23.6078 8.06151 24.3128 7.19983 24.3128ZM2.49979 11.7793V22.7461H7.19983V11.7793H2.49979Z" fill="#080C2F"/>
</svg>
