<svg width="14" height="16" viewBox="0 0 14 16" fill="none" xmlns="http://www.w3.org/2000/svg">
<path d="M14 5.09091V11.6364C14 12.4364 13.37 13.0909 12.6 13.0909H2.8L0 16V2.90909C0 2.10909 0.63 1.45455 1.4 1.45455H8.47C8.4 1.67273 8.4 1.96364 8.4 2.18182C8.4 4.21818 9.94 5.81818 11.9 5.81818C12.67 5.81818 13.44 5.52727 14 5.09091ZM9.8 2.18182C9.8 3.41818 10.71 4.36364 11.9 4.36364C13.09 4.36364 14 3.41818 14 2.18182C14 0.945455 13.09 0 11.9 0C10.71 0 9.8 0.945455 9.8 2.18182Z" fill="#080C2F"/>
</svg>
