<svg width="14" height="15" viewBox="0 0 14 15" fill="none" xmlns="http://www.w3.org/2000/svg">
<path d="M14 3.21429C14 4.59286 12.7789 5.71429 11.2778 5.71429C9.77667 5.71429 8.55556 4.59286 8.55556 3.21429C8.55556 1.83572 9.77667 0.714289 11.2778 0.714289C12.7789 0.714289 14 1.83572 14 3.21429ZM12.4444 6.99286C12.0556 7.08572 11.6667 7.14286 11.2778 7.14286C10.1439 7.14097 9.057 6.72646 8.2552 5.99012C7.45341 5.25378 7.00206 4.25563 7 3.21429C7 2.16429 7.45111 1.21429 8.16667 0.507146C8.02552 0.348247 7.84755 0.220268 7.64572 0.132535C7.44389 0.0448022 7.22329 -0.000474646 7 3.75192e-06C6.14444 3.75192e-06 5.44444 0.642861 5.44444 1.42857V1.63572C3.13444 2.26429 1.55556 4.21429 1.55556 6.42857V10.7143L0 12.1429V12.8571H14V12.1429L12.4444 10.7143V6.99286ZM7 15C7.86333 15 8.55556 14.3643 8.55556 13.5714H5.44444C5.44444 13.9503 5.60833 14.3137 5.90006 14.5816C6.19178 14.8495 6.58744 15 7 15Z" fill="#080C2F"/>
</svg>
