<svg width="12" height="12" viewBox="0 0 12 12" fill="none" xmlns="http://www.w3.org/2000/svg">
<path d="M6.63 6.9L9.12 5.31C9.31 5.19 9.405 5.02 9.405 4.8C9.405 4.58 9.31 4.41 9.12 4.29L6.63 2.7C6.43 2.56 6.225 2.55 6.015 2.67C5.805 2.79 5.7 2.965 5.7 3.195V6.405C5.7 6.635 5.805 6.81 6.015 6.93C6.225 7.05 6.43 7.04 6.63 6.9ZM3.6 9.6C3.27 9.6 2.9876 9.4826 2.7528 9.2478C2.5176 9.0126 2.4 8.73 2.4 8.4V1.2C2.4 0.87 2.5176 0.5874 2.7528 0.3522C2.9876 0.1174 3.27 0 3.6 0H10.8C11.13 0 11.4126 0.1174 11.6478 0.3522C11.8826 0.5874 12 0.87 12 1.2V8.4C12 8.73 11.8826 9.0126 11.6478 9.2478C11.4126 9.4826 11.13 9.6 10.8 9.6H3.6ZM1.2 12C0.87 12 0.5876 11.8826 0.3528 11.6478C0.1176 11.4126 0 11.13 0 10.8V3C0 2.83 0.0576001 2.6874 0.1728 2.5722C0.2876 2.4574 0.43 2.4 0.6 2.4C0.77 2.4 0.9126 2.4574 1.0278 2.5722C1.1426 2.6874 1.2 2.83 1.2 3V10.8H9C9.17 10.8 9.3124 10.8576 9.4272 10.9728C9.5424 11.0876 9.6 11.23 9.6 11.4C9.6 11.57 9.5424 11.7124 9.4272 11.8272C9.3124 11.9424 9.17 12 9 12H1.2Z" fill="#080C2F"/>
</svg>
