<svg width="8" height="8" viewBox="0 0 8 8" fill="none" xmlns="http://www.w3.org/2000/svg">
<path d="M7.996 0.8C7.996 0.36 7.64 0 7.2 0H0.8C0.36 0 0 0.36 0 0.8V5.6C0 6.04 0.36 6.4 0.8 6.4H6.4L8 8L7.996 0.8ZM6 4.8H2C1.78 4.8 1.6 4.62 1.6 4.4C1.6 4.18 1.78 4 2 4H6C6.22 4 6.4 4.18 6.4 4.4C6.4 4.62 6.22 4.8 6 4.8ZM6 3.6H2C1.78 3.6 1.6 3.42 1.6 3.2C1.6 2.98 1.78 2.8 2 2.8H6C6.22 2.8 6.4 2.98 6.4 3.2C6.4 3.42 6.22 3.6 6 3.6ZM6 2.4H2C1.78 2.4 1.6 2.22 1.6 2C1.6 1.78 1.78 1.6 2 1.6H6C6.22 1.6 6.4 1.78 6.4 2C6.4 2.22 6.22 2.4 6 2.4Z" fill="#080C2F"/>
</svg>
