<svg width="20" height="20" viewBox="0 0 20 20" fill="none" xmlns="http://www.w3.org/2000/svg">
<path d="M9.4021 3.66553H4.27757C3.67352 3.66553 3.09421 3.90548 2.66708 4.33261C2.23996 4.75974 2 5.33905 2 5.9431V16.1922C2 16.7962 2.23996 17.3755 2.66708 17.8026C3.09421 18.2298 3.67352 18.4697 4.27757 18.4697H15.6654C16.2695 18.4697 16.8488 18.2298 17.2759 17.8026C17.703 17.3755 17.943 16.7962 17.943 16.1922V11.0676" stroke="#06113E" stroke-width="2.5" stroke-linecap="round" stroke-linejoin="round"/>
<path d="M15.6656 4.80427L16.7508 5.94306M17.9431 2.48913C18.2467 2.80304 18.4148 3.22366 18.4112 3.66034C18.4076 4.09702 18.2325 4.5148 17.9238 4.82363L9.97165 12.7758L6.5553 13.9145L7.69408 10.4982L15.6508 2.47432C15.9305 2.19245 16.3048 2.02431 16.7013 2.00244C17.0978 1.98056 17.4883 2.1065 17.7974 2.35589L17.9431 2.48913Z" stroke="#06113E" stroke-width="2.5" stroke-linecap="round" stroke-linejoin="round"/>
</svg>
