<svg width="20" height="21" viewBox="0 0 20 21" fill="none" xmlns="http://www.w3.org/2000/svg">
<path d="M1.35596 1.80078C1.35596 1.6448 1.41792 1.4952 1.52822 1.38491C1.63851 1.27461 1.78811 1.21265 1.94409 1.21265H18.4119C18.5679 1.21265 18.7175 1.27461 18.8278 1.38491C18.938 1.4952 19 1.6448 19 1.80078V15.3279C19 15.4051 18.9848 15.4816 18.9552 15.553C18.9257 15.6243 18.8824 15.6892 18.8278 15.7438C18.7731 15.7984 18.7083 15.8417 18.6369 15.8713C18.5656 15.9008 18.4891 15.916 18.4119 15.916H14.3537C14.2733 15.9159 14.1937 15.9323 14.1199 15.9642C14.046 15.996 13.9795 16.0427 13.9244 16.1013L10.6063 19.6272C10.5514 19.6856 10.485 19.7322 10.4113 19.764C10.3376 19.7959 10.2582 19.8123 10.178 19.8123C10.0977 19.8123 10.0183 19.7959 9.94466 19.764C9.87099 19.7322 9.80462 19.6856 9.74963 19.6272L6.43156 16.1013C6.37647 16.0427 6.30994 15.996 6.2361 15.9642C6.16225 15.9323 6.08265 15.9159 6.00222 15.916H1.94409C1.78811 15.916 1.63851 15.8541 1.52822 15.7438C1.41792 15.6335 1.35596 15.4839 1.35596 15.3279V1.80078Z" stroke="#080C2F" stroke-width="1.5"/>
<path d="M10.178 5.13354L11.5748 7.65762L14.0989 9.05445L11.5748 10.4513L10.178 12.9753L8.78116 10.4513L6.25708 9.05445L8.78116 7.65762L10.178 5.13354Z" stroke="#080C2F" stroke-width="1.5" stroke-linecap="round" stroke-linejoin="round"/>
</svg>
