<svg width="12" height="14" viewBox="0 0 12 14" fill="none" xmlns="http://www.w3.org/2000/svg">
<path d="M10.8 6.60287V2.99242C10.8 2.67898 10.6736 2.37838 10.4485 2.15675C10.2235 1.93511 9.91826 1.8106 9.6 1.8106H7.092C6.84 1.12515 6.18 0.628784 5.4 0.628784C4.62 0.628784 3.96 1.12515 3.708 1.8106H1.2C0.54 1.8106 0 2.34242 0 2.99242V11.2651C0 11.5786 0.126428 11.8792 0.351472 12.1008C0.576515 12.3225 0.88174 12.447 1.2 12.447H4.866C5.622 13.1797 6.654 13.6288 7.8 13.6288C10.122 13.6288 12 11.7792 12 9.49242C12 8.36378 11.544 7.34742 10.8 6.60287ZM5.4 1.8106C5.73 1.8106 6 2.07651 6 2.40151C6 2.72651 5.73 2.99242 5.4 2.99242C5.07 2.99242 4.8 2.72651 4.8 2.40151C4.8 2.07651 5.07 1.8106 5.4 1.8106ZM1.8 4.17424H9V5.35606H1.8V4.17424ZM3.648 10.0833H1.8V8.90151H3.648C3.618 9.09651 3.6 9.29151 3.6 9.49242C3.6 9.69333 3.618 9.88833 3.648 10.0833ZM1.8 7.71969V6.53787H4.866C4.5 6.87469 4.224 7.27651 4.008 7.71969H1.8ZM7.8 12.447C6.144 12.447 4.8 11.1233 4.8 9.49242C4.8 7.86151 6.144 6.53787 7.8 6.53787C9.456 6.53787 10.8 7.86151 10.8 9.49242C10.8 11.1233 9.456 12.447 7.8 12.447ZM8.1 9.64015L9.816 10.6388L9.366 11.3597L7.2 10.0833V7.12878H8.1V9.64015Z" fill="#080C2F"/>
</svg>
