<svg width="12" height="11" viewBox="0 0 12 11" fill="none" xmlns="http://www.w3.org/2000/svg">
<path fill-rule="evenodd" clip-rule="evenodd" d="M7.09086 2.62872C6.9462 2.62872 6.80746 2.68619 6.70517 2.78848C6.60288 2.89078 6.54541 3.02951 6.54541 3.17418V7.53781C6.54541 7.68248 6.60288 7.82122 6.70517 7.92351C6.80746 8.0258 6.9462 8.08327 7.09086 8.08327H9.27268C9.41735 8.08327 9.55609 8.0258 9.65838 7.92351C9.76067 7.82122 9.81814 7.68248 9.81814 7.53781V3.17418C9.81814 3.02951 9.76067 2.89078 9.65838 2.78848C9.55609 2.68619 9.41735 2.62872 9.27268 2.62872H7.09086ZM8.72723 3.71963H7.63632V6.99236H8.72723V3.71963Z" fill="white"/>
<path d="M2.72722 2.62872C2.58255 2.62872 2.44382 2.68619 2.34152 2.78848C2.23923 2.89078 2.18176 3.02951 2.18176 3.17418C2.18176 3.31884 2.23923 3.45758 2.34152 3.55987C2.44382 3.66216 2.58255 3.71963 2.72722 3.71963H4.90904C5.0537 3.71963 5.19244 3.66216 5.29473 3.55987C5.39702 3.45758 5.45449 3.31884 5.45449 3.17418C5.45449 3.02951 5.39702 2.89078 5.29473 2.78848C5.19244 2.68619 5.0537 2.62872 4.90904 2.62872H2.72722ZM2.72722 4.81054C2.58255 4.81054 2.44382 4.86801 2.34152 4.9703C2.23923 5.07259 2.18176 5.21133 2.18176 5.356C2.18176 5.50066 2.23923 5.6394 2.34152 5.74169C2.44382 5.84398 2.58255 5.90145 2.72722 5.90145H4.90904C5.0537 5.90145 5.19244 5.84398 5.29473 5.74169C5.39702 5.6394 5.45449 5.50066 5.45449 5.356C5.45449 5.21133 5.39702 5.07259 5.29473 4.9703C5.19244 4.86801 5.0537 4.81054 4.90904 4.81054H2.72722ZM2.18176 7.53781C2.18176 7.39315 2.23923 7.25441 2.34152 7.15212C2.44382 7.04983 2.58255 6.99236 2.72722 6.99236H4.90904C5.0537 6.99236 5.19244 7.04983 5.29473 7.15212C5.39702 7.25441 5.45449 7.39315 5.45449 7.53781C5.45449 7.68248 5.39702 7.82122 5.29473 7.92351C5.19244 8.0258 5.0537 8.08327 4.90904 8.08327H2.72722C2.58255 8.08327 2.44382 8.0258 2.34152 7.92351C2.23923 7.82122 2.18176 7.68248 2.18176 7.53781Z" fill="white"/>
<path fill-rule="evenodd" clip-rule="evenodd" d="M1.63636 0.446899C1.20237 0.446899 0.786158 0.619302 0.47928 0.926179C0.172402 1.23306 0 1.64927 0 2.08326V8.62872C0 9.06271 0.172402 9.47892 0.47928 9.7858C0.786158 10.0927 1.20237 10.2651 1.63636 10.2651H10.3636C10.7976 10.2651 11.2138 10.0927 11.5207 9.7858C11.8276 9.47892 12 9.06271 12 8.62872V2.08326C12 1.64927 11.8276 1.23306 11.5207 0.926179C11.2138 0.619302 10.7976 0.446899 10.3636 0.446899H1.63636ZM10.3636 1.53781H1.63636C1.4917 1.53781 1.35296 1.59528 1.25067 1.69757C1.14838 1.79986 1.09091 1.9386 1.09091 2.08326V8.62872C1.09091 8.77338 1.14838 8.91212 1.25067 9.01441C1.35296 9.1167 1.4917 9.17417 1.63636 9.17417H10.3636C10.5083 9.17417 10.647 9.1167 10.7493 9.01441C10.8516 8.91212 10.9091 8.77338 10.9091 8.62872V2.08326C10.9091 1.9386 10.8516 1.79986 10.7493 1.69757C10.647 1.59528 10.5083 1.53781 10.3636 1.53781Z" fill="white"/>
</svg>
