<svg width="13" height="13" viewBox="0 0 13 13" fill="none" xmlns="http://www.w3.org/2000/svg">
<path d="M6.4935 0C2.9055 0 0 2.912 0 6.5C0 10.088 2.9055 13 6.4935 13C10.088 13 13 10.088 13 6.5C13 2.912 10.088 0 6.4935 0ZM4.225 3.9C4.7645 3.9 5.2 4.3355 5.2 4.875C5.2 5.4145 4.7645 5.85 4.225 5.85C3.6855 5.85 3.25 5.4145 3.25 4.875C3.25 4.3355 3.6855 3.9 4.225 3.9ZM9.5615 8.268C8.97 9.5355 7.826 10.4 6.5 10.4C5.174 10.4 4.03 9.5355 3.4385 8.268C3.3345 8.0535 3.4905 7.8 3.731 7.8H9.269C9.5095 7.8 9.6655 8.0535 9.5615 8.268ZM8.775 5.85C8.2355 5.85 7.8 5.4145 7.8 4.875C7.8 4.3355 8.2355 3.9 8.775 3.9C9.3145 3.9 9.75 4.3355 9.75 4.875C9.75 5.4145 9.3145 5.85 8.775 5.85Z" fill="#080C2F"/>
</svg>
